<?xml version="1.0" encoding="UTF-8" standalone="no"?>
<!-- Created with Inkscape (http://www.inkscape.org/) -->

<svg
   xmlns:dc="http://purl.org/dc/elements/1.1/"
   xmlns:cc="http://creativecommons.org/ns#"
   xmlns:rdf="http://www.w3.org/1999/02/22-rdf-syntax-ns#"
   xmlns:svg="http://www.w3.org/2000/svg"
   xmlns="http://www.w3.org/2000/svg"
   xmlns:sodipodi="http://sodipodi.sourceforge.net/DTD/sodipodi-0.dtd"
   xmlns:inkscape="http://www.inkscape.org/namespaces/inkscape"
   width="479.60846"
   height="427.21313"
   id="svg2"
   version="1.1"
   inkscape:version="0.48.1 "
   sodipodi:docname="watermelon.svg">
  <title
     id="title3030">Watermelon</title>
  <defs
     id="defs4" />
  <sodipodi:namedview
     id="base"
     pagecolor="#ffffff"
     bordercolor="#666666"
     borderopacity="1.0"
     inkscape:pageopacity="0.0"
     inkscape:pageshadow="2"
     inkscape:zoom="0.35"
     inkscape:cx="390.39604"
     inkscape:cy="-209.76487"
     inkscape:document-units="px"
     inkscape:current-layer="layer1"
     showgrid="false"
     fit-margin-top="0"
     fit-margin-left="0"
     fit-margin-right="0"
     fit-margin-bottom="0"
     inkscape:window-width="1920"
     inkscape:window-height="1058"
     inkscape:window-x="1912"
     inkscape:window-y="-8"
     inkscape:window-maximized="1" />
  <metadata
     id="metadata7">
    <rdf:RDF>
      <cc:Work
         rdf:about="">
        <dc:format>image/svg+xml</dc:format>
        <dc:type
           rdf:resource="http://purl.org/dc/dcmitype/StillImage" />
        <dc:title>Watermelon</dc:title>
        <dc:date>2015</dc:date>
        <dc:creator>
          <cc:Agent>
            <dc:title>arking</dc:title>
          </cc:Agent>
        </dc:creator>
        <dc:subject>
          <rdf:Bag>
            <rdf:li>fruit watermelon red</rdf:li>
          </rdf:Bag>
        </dc:subject>
      </cc:Work>
    </rdf:RDF>
  </metadata>
  <g
     inkscape:label="Ebene 1"
     inkscape:groupmode="layer"
     id="layer1"
     transform="translate(768.96747,104.61583)">
    <g
       id="g2996"
       transform="matrix(0.36973833,0,0,0.36973833,-579.7263,-47.976631)">
      <path
         style="fill:#e5cd92"
         d="m 32.22016,998.34285 c -76.39004,-25.24147 -160.26527,-40.73441 -223.83688,-92.89358 -33.99238,-30.57003 36.74001,-74.09374 -29.72942,-85.70402 -71.80669,-44.51035 -143.32702,-90.60486 -209.11086,-143.77992 -63.16739,-48.41496 -96.2633,-131.73179 -74.86997,-209.63452 13.53288,-84.4898 63.3872,-155.19146 101.1594,-229.76232 5.46038,-29.77646 45.65559,-96.65743 37.31356,-28.16474 2.23049,33.44302 46.97793,-32.57736 73.87905,-26.80012 56.34084,-13.9491 111.69951,-48.93884 165.38731,-43.62307 19.43723,-35.24037 65.128711,-41.731143 94.659787,-19.84045 C -4.2104242,117.65601 2.8903285,84.472278 38.262589,85.867609 61.970623,74.346217 78.665624,75.440453 101.87145,75.3818 132.02845,9.6782846 210.57871,60.105789 248.7575,2.9227098 299.51886,-38.099487 366.63808,-39.827747 420.10532,-70.955407 c 60.06428,-15.591687 122.63912,-27.444224 178.37782,-54.007743 38.65023,-22.33233 74.69432,-48.28839 82.98098,20.81585 51.72148,132.253216 92.63637,269.72294 102.17828,412.0979 9.0244,133.712 -17.99042,271.86201 -83.78425,389.41427 -36.48054,66.69508 -97.9721,113.65602 -162.82898,150.34705 -37.64617,39.25108 -78.26015,76.59288 -127.46399,102.27822 -46.7123,27.87306 -96.87883,55.29566 -153.21473,49.87983 -74.58658,1.08673 -149.75584,4.76323 -224.13029,-1.52712 z"
         id="path3016"
         inkscape:connector-curvature="0" />
      <path
         style="fill:#f09d91"
         d="M 120.24739,999.88709 C 28.730473,982.79854 -67.232169,964.77631 -146.4884,913.57651 c -40.40179,-23.70813 -3.0017,-82.10877 -62.43261,-88.26925 -69.12936,-36.67576 -130.38394,-86.20348 -193.92713,-131.55303 -53.40538,-42.78037 -116.80544,-96.60875 -106.55298,-172.74775 4.58315,-102.81036 58.9185,-192.67396 106.41839,-280.65659 9.05671,-25.08468 43.75069,-99.43132 31.21994,-31.94802 -5.15453,58.55325 43.2429,-5.52921 69.48577,-9.34654 -5.56909,-17.75617 62.1705,-40.54034 68.59733,-25.21373 34.4645,-33.58272 67.87707,-18.17913 108.43913,-35.70939 24.11458,-35.73797 72.54471,-41.561244 92.244836,-4.69563 5.221796,-13.31717 47.256309,-33.801996 75.834607,-47.349602 22.335631,1.095667 29.923554,-24.650209 53.33903,-2.45495 C 116.75173,36.255329 170.21934,33.716343 206.61361,50.434681 181.42133,33.507221 242.7403,25.209954 254.57529,0.87056289 301.12496,-34.417873 361.6973,-39.314657 411.45314,-60.222111 c 46.14557,-24.929995 104.28153,-29.539427 157.07729,-44.995199 28.70285,-24.83991 84.3723,32.156147 65.34582,-20.88962 31.10314,-63.79722 54.3568,50.319945 67.59481,79.058262 35.68867,105.739425 69.69161,213.756258 76.09235,325.788808 15.94175,86.91124 1.90112,177.19598 -18.16364,262.35559 -20.81288,85.72067 -57.52008,169.65974 -120.85659,232.3977 -41.98448,34.86595 -88.35646,70.50142 -138.61479,89.46245 -36.96801,40.45379 -85.94123,75.62561 -137.87511,99.67428 -73.60787,42.59584 -159.57214,42.29794 -241.80589,37.25693 z m 77.57754,-185.14322 c 46.64053,-5.96214 111.11458,-0.008 164.2326,-0.21514 46.65699,-9.91814 105.27586,-34.04524 126.83013,-20.48514 24.59585,-33.97329 41.50865,33.84025 55.44025,-17.67489 14.59966,-36.58239 16.55938,-34.09571 -11.59863,-27.79358 -54.58843,-14.65815 -93.41721,40.10677 -149.5838,25.61915 -57.14338,21.81101 -119.20219,9.48361 -175.84077,5.71709 C 152.08465,760.50775 90.350419,754.86802 44.874415,723.2809 6.2100757,696.70968 -28.960878,664.19421 -69.924276,636.4443 -98.348955,603.57431 -162.2565,576.22827 -158.06859,529.88354 c -41.15783,-9.29099 -66.05272,-65.19524 -91.11941,-100.92781 -19.29218,-13.713 -74.24146,-89.27174 -38.36353,-31.04905 18.63845,33.07978 42.6978,73.81187 61.71349,96.19941 17.03544,22.36844 52.89942,68.86773 14.81544,57.95808 24.71145,39.67526 48.82929,84.92718 94.50112,91.14233 2.9913,36.95789 71.732549,31.83993 50.458941,71.83858 36.33821,-19.15018 50.404794,34.01961 82.48805,11.15452 -4.630469,30.32293 36.361164,29.17441 29.588615,52.34967 33.454671,-26.38199 53.201718,39.27487 102.468334,23.19097 27.21019,-14.16516 38.52271,34.11825 49.34247,13.00363 z m 419.85895,-78.87035 c 14.99304,-16.69775 42.74594,-46.53293 43.16196,-59.6866 -13.90378,-14.06811 8.3278,-53.16626 11.97056,-8.21517 18.91974,-10.18137 -9.6361,-41.70607 18.98788,-50.61383 7.45508,-25.53359 26.45832,-25.93662 11.63632,-50.98867 15.26745,-5.38847 50.8208,-27.34412 9.58418,-31.08482 8.39333,-21.99185 31.12184,-44.13163 28.53384,-66.97646 32.27691,-42.57165 0.67026,-105.06847 3.98205,-155.96152 -22.08977,-19.29577 -7.15652,62.93856 -16.98187,80.67011 -14.69253,43.02824 -12.28137,96.64453 -21.65368,131.53299 -30.52831,48.6854 -48.43941,107.82494 -94.36216,144.63111 -31.37423,3.20217 -68.57644,73.29961 -16.25466,55.53703 -12.74138,-40.16844 37.63226,-7.15869 3.96527,13.88347 l 5.86439,0.66074 11.56595,-3.38838 -3e-5,0 z M 753.44946,274.32718 c 14.1602,-34.82161 -40.88153,-76.26726 -21.3,-17.84496 -4.04256,21.31289 19.50331,62.20968 21.3,17.84496 z"
         id="path3014"
         inkscape:connector-curvature="0" />
      <path
         style="fill:#d5cb67"
         d="m 120.24739,999.88709 c -0.81196,-0.81196 -14.4105,-3.39965 -30.218957,-5.75047 -15.808489,-2.3508 -38.085204,-6.62358 -49.503823,-9.49509 -41.10215556,-10.33622 -83.317495,-22.14705 -87.979143,-24.61444 -2.614628,-1.38394 -17.833391,-7.28373 -33.819457,-13.11068 -37.3512,-13.61459 -54.47611,-22.95095 -71.71258,-39.09718 -18.88628,-17.69169 -20.7841,-23.86683 -15.51138,-50.47129 1.93435,-9.7602 1.93435,-9.7602 -32.16831,-27.6815 -45.47025,-23.89512 -67.44782,-37.22533 -83.87389,-50.87265 -7.50634,-6.2365 -33.16543,-24.41859 -57.02022,-40.40466 -124.80041,-83.63386 -163.49279,-130.9168 -165.51977,-202.26882 -2.26853,-79.85434 17.89624,-143.98601 76.81611,-244.30473 20.67938,-35.20929 33.42094,-60.34988 33.42094,-65.94337 0,-5.38842 18.16435,-27.27231 22.63692,-27.27231 1.52675,0 1.84711,5.12501 0.76955,12.31074 -3.71427,24.76847 9.59772,34.56462 26.8743,19.77652 8.137,-6.96497 14.412,-9.77915 23.96931,-10.74967 17.50298,-1.77731 35.95546,-6.81836 42.9874,-11.74373 3.18614,-2.23166 9.80501,-4.05756 14.70861,-4.05756 5.60297,0 10.27648,-1.94288 12.57819,-5.22903 2.01438,-2.87597 11.73895,-8.57897 21.61012,-12.67337 9.87117,-4.09437 19.19324,-8.90389 20.71573,-10.68782 4.35194,-5.09927 19.77195,-9.71787 23.90878,-7.16118 5.81638,3.59472 16.90269,-0.40587 24.95241,-9.00427 8.0595,-8.60883 15.48379,-10.13317 17.95743,-3.68695 3.66124,9.54104 26.58775,-7.29875 30.35114,-22.29324 1.87099,-7.45465 11.19791,-11.62199 15.772582,-7.04732 4.947598,4.9476 24.346184,3.72117 28.488776,-1.80113 3.292908,-4.38956 3.809777,-3.99444 5.506985,4.20983 2.163088,10.45644 5.994041,13.98448 8.394,7.73026 3.096148,-8.06844 20.320241,-2.80644 31.014574,9.47501 3.13349,3.59854 3.442941,3.20973 2.191295,-2.75309 -3.446485,-16.41875 11.230855,-22.23677 27.8322809,-11.03257 13.6410561,9.20623 22.0160931,9.99753 12.8393441,1.21311 -14.7404818,-14.11028 -14.2166094,-24.92325 1.087191,-22.43981 9.335696,1.51498 9.489412,1.38347 7.732605,-6.61527 -1.523091,-6.934518 -0.951939,-8.161002 3.800421,-8.161002 3.076079,0 6.362731,-1.245668 7.303681,-2.76815 0.94095,-1.522482 7.242809,-2.76815 14.004126,-2.76815 11.267423,0 12.293299,-0.577519 12.293299,-6.920375 0,-8.91992 5.640991,-8.929824 18.734009,-0.03288 11.470909,7.79467 22.741151,0.795242 33.227381,-20.635987 7.23063,-14.777605 21.23658,-17.502317 35.2043,-6.848619 10.6937,8.156486 18.02401,5.62302 18.02401,-6.229384 0,-5.308339 5.35349,-4.419636 10.62889,1.764441 7.24591,8.494038 29.2201,9.105195 30.39324,0.845316 0.59,-4.153928 3.35181,-6.762482 8.30445,-7.843617 14.36481,-3.135749 14.7817,-3.465864 11.68461,-9.252823 -3.26315,-6.097235 -2.24035,-7.110142 9.77885,-9.684422 6.93131,-1.484551 9.87894,-0.44967 15.91686,5.588249 8.63951,8.63951 9.11524,7.650444 2.74529,-5.707501 -2.56572,-5.380342 -6.30272,-9.78244 -8.30445,-9.78244 -8.68759,0 2.01247,-11.5230686 11.58528,-12.4763945 9.38744,-0.9348651 18.03475,-5.4396055 19.53885,-10.1785812 1.30009,-4.0962253 3.3594,-5.0903173 8.0869,-3.9037893 3.90323,0.9796486 7.65948,0.0053 9.76648,-2.533565 1.88312,-2.269009 5.66076,-4.125468 8.3948,-4.125468 8.52638,0 14.06049,-3.281736 16.54241,-9.809654 1.48578,-3.907941 5.66546,-7.005833 11.047,-8.187816 4.7613,-1.045757 11.84217,-3.553903 15.73524,-5.573659 7.99367,-4.147167 14.69395,-2.691176 14.69395,3.193045 0,7.22192 8.1013,7.18246 20.52785,-0.09999 6.76046,-3.961887 14.91175,-7.203429 18.114,-7.203429 3.20228,0 6.55969,-1.921564 7.46091,-4.27014 2.07769,-5.414363 18.61363,-13.795379 32.01598,-16.22687 5.6645,-1.027664 14.14154,-5.101694 18.83787,-9.053397 7.00411,-5.893579 9.65368,-6.676938 14.74195,-4.358571 4.57805,2.0859 7.5774,1.821462 11.44882,-1.009389 2.88511,-2.109652 7.92674,-3.835732 11.20362,-3.835732 3.27688,0 13.14035,-2.471116 21.91887,-5.491367 8.77853,-3.020253 21.74164,-5.470163 28.8069,-5.444247 19.31601,0.07084 31.81852,-1.259509 35.75436,-3.804523 18.67906,-12.078349 53.21572,4.066484 53.21572,24.87672 0,2.977791 1.82889,7.832168 4.0642,10.787503 6.98412,9.233867 5.33494,-6.760603 -2.47979,-24.049761 -11.60929,-25.684181 -11.99717,-38.486981 -1.62278,-53.565641 16.88508,-24.5416 18.09498,-22.69597 58.03228,88.52504 44.01732,122.583476 74.91377,245.19912 74.4237,295.35774 -0.0985,10.07004 4.14442,39.98878 8.75452,61.73359 7.92799,37.39444 -4.33846,171.85666 -20.83345,228.37237 -2.44397,8.37365 -6.87711,24.56733 -9.85143,35.98595 -2.97432,11.41862 -7.82839,25.94379 -10.78679,32.27818 -2.95843,6.33435 -6.85784,17.54536 -8.66536,24.91334 -4.16081,16.96054 -19.72947,48.34571 -31.86772,64.2427 -5.13738,6.72821 -9.34068,13.73559 -9.34068,15.57192 0,1.83637 -4.04842,8.71168 -8.99649,15.2785 -4.94807,6.5668 -13.48952,18.01047 -18.98101,25.43036 -18.35292,24.79775 -65.67433,63.07025 -103.50963,83.71627 -10.65737,5.81552 -23.11405,14.07089 -27.6815,18.34522 -9.60855,8.99195 -20.50501,13.6474 -31.94284,13.6474 -5.95526,0 -9.11117,1.98307 -12.1145,7.61241 -14.69207,27.53805 -59.80306,59.48073 -140.4703,99.46569 -16.29884,8.07898 -56.50713,21.88496 -79.31041,27.23217 -17.10511,4.01105 -144.14272,6.26395 -147.78579,2.62094 z m 77.57754,-185.14322 c 0.80838,-6.86994 1.65214,-7.42839 8.30445,-5.49641 4.07253,1.18274 18.61561,2.45811 32.31795,2.83414 13.70235,0.37602 28.81872,1.50878 33.59195,2.51724 4.77323,1.00844 11.08957,0.54323 14.03629,-1.03382 3.71466,-1.98803 8.95654,-1.95387 17.09288,0.11128 8.90318,2.25986 13.30274,2.13978 18.23065,-0.49754 5.05583,-2.70582 10.44412,-2.78864 24.31161,-0.3737 15.42856,2.68676 19.0802,2.46393 27.24829,-1.66272 5.18768,-2.62089 16.28331,-5.64246 24.65696,-6.71462 8.37365,-1.07213 20.83033,-3.35918 27.6815,-5.0823 6.85117,-1.72309 17.90401,-3.62815 24.56188,-4.23344 8.19519,-0.74505 13.3871,-2.93067 16.07384,-6.76652 5.91072,-8.43876 10.16457,-7.0737 8.22213,2.63846 -0.91349,4.56745 -0.48864,8.30445 0.94413,8.30445 4.67995,0 23.49941,-9.60318 25.76766,-13.14871 1.21751,-1.9031 5.30502,-3.46019 9.08335,-3.46019 6.38078,0 7.48278,1.31861 11.05915,13.23284 2.95372,9.83997 23.31831,-7.22805 23.31831,-19.54361 0,-8.8937 1.39637,-12.6066 5.76794,-15.33668 3.17238,-1.98117 5.13821,-5.24318 4.36855,-7.24893 -0.76968,-2.00575 -0.11044,-4.93572 1.46485,-6.51105 3.43603,-3.43602 0.26519,-9.70034 -3.67687,-7.26404 -1.52107,0.94006 -2.11224,3.41183 -1.31371,5.49281 1.7815,4.64247 -0.10519,5.8966 -10.74577,7.14263 -6.76109,0.79175 -8.29041,-0.049 -8.30445,-4.56584 -0.0111,-3.89584 -1.65768,-5.35009 -5.55351,-4.90787 -3.04497,0.34565 -8.33906,-0.79911 -11.76464,-2.54388 -4.78099,-2.43511 -7.77518,-2.34446 -12.88477,0.39012 -3.66102,1.95932 -7.97609,2.7468 -9.58901,1.74997 -1.61295,-0.99687 -12.34612,1.34756 -23.85152,5.20979 -11.5054,3.86224 -23.41071,7.02224 -26.45626,7.02224 -3.18046,0 -6.84425,2.86828 -8.60775,6.73876 -3.38349,7.42595 -30.31338,12.4905 -45.94634,8.64089 -20.06942,-4.94211 -22.61047,-4.84498 -31.08331,1.18823 -6.89825,4.91197 -13.34068,6.28542 -33.51986,7.14595 -13.73918,0.58588 -26.10111,1.75794 -27.47092,2.60453 -1.36982,0.84661 -7.0574,-0.36886 -12.63905,-2.70103 -13.24526,-5.53422 -38.18228,-5.58449 -43.67872,-0.088 -2.28372,2.28372 -6.58003,4.15222 -9.54732,4.15222 -2.96729,0 -6.94579,-1.8685 -8.84111,-4.15222 -1.89532,-2.28373 -6.25516,-4.15223 -9.68852,-4.15223 -3.43337,0 -7.79321,-1.8685 -9.68853,-4.15222 -1.89532,-2.28373 -6.9867,-4.15223 -11.31415,-4.15223 -5.03504,0 -8.93498,-1.99345 -10.83105,-5.5363 -1.62961,-3.04496 -5.45428,-5.5363 -8.49924,-5.5363 -3.04497,0 -8.61288,-2.01585 -12.37314,-4.47967 -4.75407,-3.115 -7.88671,-3.62597 -10.28318,-1.6773 -5.11183,4.15665 -26.31013,2.08095 -32.08067,-3.1413 -2.76065,-2.49834 -6.19537,-4.54245 -7.63267,-4.54245 -1.43734,0 -9.075743,-4.256 -16.974271,-9.4578 -9.456056,-6.22756 -16.348223,-8.93813 -20.179454,-7.93623 -3.970717,1.03836 -7.131917,-0.35355 -9.954212,-4.38295 -2.327156,-3.32247 -7.131308,-5.90452 -10.985984,-5.90452 -3.767646,0 -7.567292,-1.8685 -8.443633,-4.15222 -0.885808,-2.30834 -4.999113,-4.15223 -9.2627,-4.15223 -10.212675,0 -15.264825,-6.08746 -11.261001,-13.56867 3.316106,-6.19622 -7.394697,-14.11283 -19.0939787,-14.11283 -3.1205631,0 -5.6737663,-1.07642 -5.6737663,-2.39207 0,-1.31564 -5.6075799,-4.53364 -12.461298,-7.1511 -6.853745,-2.61745 -14.016334,-6.96258 -15.916862,-9.65586 -1.900557,-2.69324 -14.008223,-13.81528 -26.905892,-24.71559 -16.141581,-13.64188 -23.474937,-21.7199 -23.529275,-25.91852 -0.04789,-3.69955 -2.80206,-7.44552 -6.999323,-9.5198 -6.741829,-3.33183 -14.96891,-13.98583 -18.34807,-23.76064 -2.06839,-5.98308 -3.6678,-6.0793 -7.77128,-0.46743 -8.54553,11.68671 -36.9581,-15.83969 -33.34228,-32.30234 2.57858,-11.74025 -7.91367,-24.66934 -20.01974,-24.66934 -7.02656,0 -9.807,-1.49018 -11.6211,-6.22834 -1.31158,-3.42558 -6.88625,-10.98828 -12.38817,-16.80599 -5.84337,-6.17876 -10.00351,-13.37365 -10.00351,-17.30094 0,-4.87784 -1.51963,-6.72328 -5.5363,-6.72328 -3.04496,0 -5.5363,-1.15902 -5.5363,-2.57562 0,-1.4166 -2.80275,-2.97369 -6.22834,-3.46019 -3.92997,-0.55814 -6.54504,-3.10874 -7.08654,-6.91188 -0.47203,-3.31502 -2.65195,-7.51597 -4.84427,-9.33542 -2.19234,-1.81947 -3.98605,-6.05928 -3.98605,-9.42181 0,-3.71015 -2.75785,-7.5896 -7.01499,-9.86796 -3.85825,-2.06487 -9.56534,-7.88086 -12.68245,-12.92443 -3.1171,-5.04357 -6.8615,-9.17014 -8.3209,-9.17014 -4.43967,0 -24.50513,-23.19812 -24.542,-28.37353 -0.0191,-2.66435 -1.1783,-4.84426 -2.57626,-4.84426 -1.39796,0 -4.65588,-0.81127 -7.23982,-1.80282 -5.53634,-2.1245 -3.3428,9.39491 2.71531,14.25949 1.89603,1.52248 5.67601,7.12799 8.39997,12.45668 2.72395,5.32868 6.65239,10.68467 8.72984,11.90218 2.07746,1.21752 3.7772,4.56958 3.7772,7.44904 0,2.87945 1.24567,6.00525 2.76815,6.9462 1.52248,0.94095 2.76815,4.12864 2.76815,7.08375 0,2.95511 1.15742,5.37292 2.57203,5.37292 2.49273,0 19.57317,23.46555 19.57317,26.89012 0,9.68022 9.93104,22.6338 16.1549,21.07171 5.97959,-1.50076 6.65075,-0.95964 5.28542,4.26137 -1.08163,4.1362 0.0664,6.85289 3.72272,8.80972 2.90763,1.55612 5.28661,4.48413 5.28661,6.50667 0,2.02255 3.19735,6.8747 7.1052,10.78258 4.29382,4.29379 7.61386,11.28885 8.39068,17.67841 0.79726,6.55744 3.60258,12.34116 7.38623,15.22814 3.35541,2.56021 5.3634,5.39228 4.4622,6.2935 -2.2097,2.20971 -10.73541,-1.22446 -10.73541,-4.32424 0,-1.35957 -2.49134,-2.47198 -5.5363,-2.47198 -7.89172,0 -6.84929,6.61638 2.76815,17.57006 4.56745,5.20201 8.30445,10.80705 8.30445,12.45559 0,1.64854 2.49134,4.33069 5.5363,5.9603 3.85789,2.06468 5.5363,5.79601 5.5363,12.30799 0,9.95062 12.26526,23.46968 21.66556,23.88028 9.38597,0.40996 21.27941,9.73287 20.37472,15.97115 -0.70449,4.8579 0.58624,6.0226 6.92038,6.2445 19.72052,0.69085 21.62783,1.19886 21.66213,5.76976 0.0194,2.56215 2.63636,7.54482 5.81585,11.0726 3.17947,3.52779 6.60484,8.73631 7.611889,11.57452 1.286304,3.62531 3.766123,4.79045 8.336228,3.91683 4.287781,-0.81965 7.586613,0.48796 9.677563,3.8361 1.744765,2.79381 5.030227,5.07966 7.301051,5.07966 11.760762,0 19.06854,17.88258 10.719606,26.23152 -6.355811,6.35581 -3.577004,7.58094 10.18264,4.48936 17.993224,-4.0428 27.035164,-1.24645 31.64513,9.78676 4.356515,10.42657 19.4907107,13.39738 26.321453,5.16684 7.54714,-9.09376 19.674294,-0.68113 13.43051,9.31676 -4.416002,7.07113 3.888808,18.00684 11.774132,15.50413 5.753102,-1.82596 16.317608,4.04155 16.317608,9.06278 0,1.9175 -1.245667,3.48635 -2.76815,3.48635 -1.522483,0 -2.76815,3.11417 -2.76815,6.92037 0,8.36242 5.455442,9.21155 7.556745,1.17619 1.360906,-5.20412 2.833008,-5.56473 15.657708,-3.83571 17.885267,2.41125 18.688085,2.94863 16.633786,11.13363 -1.512573,6.0266 -0.807719,6.75072 6.571284,6.75072 4.546077,0 9.707431,1.73732 11.469691,3.86068 3.484906,4.19909 16.674786,7.24633 36.227886,8.36967 6.85117,0.3936 13.07951,0.97594 13.84075,1.29408 0.76124,0.31812 7.45305,1.11595 14.8707,1.77292 13.77304,1.21989 21.11525,4.97021 21.11525,10.78538 0,11.19342 12.0445,11.595 13.35652,0.44531 z m 419.85895,-78.87035 c 10.94837,-4.17603 13.90348,-6.63407 14.14091,-11.7624 0.16498,-3.5657 0.4765,-7.95956 0.69203,-9.76412 0.21564,-1.80456 4.71591,-4.84459 10.0008,-6.75564 8.10155,-2.92956 9.3558,-4.48319 7.99533,-9.90367 -1.90703,-7.59823 3.11104,-14.66156 10.41619,-14.66156 6.76683,0 6.70986,-4.68318 -0.0833,-6.83921 -7.65175,-2.42858 -9.2715,-9.19422 -3.00419,-12.54838 4.57035,-2.44597 4.88894,-3.87472 2.18653,-9.80584 -2.27904,-5.00194 -2.32156,-7.78443 -0.15224,-9.95383 3.5447,-3.54469 11.7867,10.32567 11.7867,19.83571 0,4.1032 1.46194,5.59811 4.84426,4.95346 5.23845,-0.99841 8.56867,-13.32341 3.59998,-13.32341 -1.7954,0 -2.342,-2.67516 -1.3523,-6.61839 0.9136,-3.64009 0.31449,-7.45062 -1.33134,-8.4678 -5.80063,-3.58511 -3.38678,-12.5953 3.37448,-12.5953 7.88968,0 13.09194,-4.87079 11.00656,-10.30522 -0.86414,-2.25186 0.1146,-5.13616 2.17504,-6.40957 2.06042,-1.27337 3.79901,-5.81892 3.86357,-10.10117 0.0966,-6.40505 1.33981,-7.79538 7.01011,-7.83926 8.6141,-0.0667 10.9355,-8.30866 2.92981,-10.40221 -7.59519,-1.98617 -7.6585,-15.67731 -0.10242,-22.14705 6.21536,-5.32172 11.04099,-6.19554 11.04099,-1.99927 0,5.83565 7.33142,2.39464 12.101,-5.67964 6.60062,-11.17394 4.33035,-16.84527 -5.92238,-14.79473 -10.99758,2.19951 -16.75636,-4.70749 -11.73994,-14.08075 1.96771,-3.67669 6.13026,-7.05981 9.25013,-7.51805 3.76388,-0.55282 6.4527,-3.86018 7.99137,-9.82964 1.29472,-5.02311 4.11776,-8.99649 6.39194,-8.99649 4.68437,0 5.78834,-15.22208 1.30493,-17.99297 -4.88041,-3.01626 -2.96325,-9.25456 3.46019,-11.25915 8.40607,-2.62332 10.14715,-6.02726 8.44573,-16.51185 -0.90573,-5.58147 0.18547,-11.34852 2.94354,-15.55805 5.25323,-8.01742 4.41529,-58.09328 -1.08295,-64.71824 -3.74639,-4.51416 -8.79281,-43.66612 -6.42394,-49.83935 2.61682,-6.81925 -1.42424,-17.14528 -7.31229,-18.68504 -3.27571,-0.8566 -5.56658,-3.77351 -5.56658,-7.08776 0,-7.45299 4.07203,-9.67449 8.32975,-4.54428 10.59797,12.76978 19.79817,-29.29328 10.02563,-45.83685 -2.48306,-4.20349 -4.51463,-9.5569 -4.51463,-11.89648 0,-5.33423 -1.72644,-6.38305 -14.42965,-8.76621 -13.53855,-2.53983 -18.2359,8.9078 -7.32471,17.85058 5.23783,4.29293 5.94839,6.34557 3.59178,10.37613 -3.36361,5.75286 -3.3078,68.7624 0.0678,76.45152 1.20514,2.74525 0.64515,12.08776 -1.24445,20.76112 -1.88959,8.67336 -3.61363,18.2611 -3.8312,21.30606 -0.21758,3.04497 -1.34837,7.01781 -2.51285,8.82854 -1.1645,1.81073 -1.30332,8.38227 -0.30853,14.60343 1.36879,8.55998 0.68312,12.555 -2.819,16.42479 -2.85892,3.15907 -4.37579,8.85471 -3.96856,14.9014 0.36254,5.38327 -0.75222,11.48835 -2.47722,13.56687 -4.86635,5.8636 -4.16313,59.16355 0.83534,63.31193 5.62716,4.67012 4.9215,8.15461 -1.65147,8.15461 -6.96871,0 -9.99637,6.97793 -5.42018,12.49191 2.87641,3.46589 2.26869,4.11699 -3.84255,4.11699 -4.43366,0 -7.25931,1.53369 -7.25931,3.94018 0,2.16713 -4.16266,9.39361 -9.25038,16.05887 -5.08772,6.66526 -10.08839,15.45749 -11.1126,19.53832 -1.02422,4.08081 -5.46245,11.52007 -9.8627,16.5317 -5.99246,6.82504 -7.63973,10.99924 -6.56314,16.63107 1.13616,5.94352 -0.36919,9.10423 -7.18435,15.0844 -4.74192,4.16097 -8.62168,9.69038 -8.62168,12.28757 0,2.59716 -1.75537,6.47752 -3.90085,8.62298 -2.14545,2.14548 -4.32537,6.77848 -4.84426,10.29558 -1.58568,10.7482 -8.64449,12.90456 -18.73132,5.72209 -4.85556,-3.45744 -9.56493,-5.54961 -10.4653,-4.64924 -2.46221,2.46218 -8.80333,13.57871 -10.71257,18.7801 -0.92634,2.52358 -4.15287,5.23388 -7.17007,6.02288 -3.01717,0.78903 -6.16146,4.01836 -6.98728,7.17632 -0.82582,3.15793 -2.51708,5.74172 -3.75832,5.74172 -15.69026,0 -16.34656,33.6519 -0.7831,40.15473 18.18084,7.59644 26.82055,3.87297 20.10953,-8.66663 -5.31375,-9.92883 1.60857,-16.6344 12.19339,-11.81162 9.26735,4.22248 9.35405,10.59061 0.27754,20.38433 -12.35761,13.33406 -7.88884,17.31599 11.24334,10.01843 z M 131.63173,548.07883 c 4.6812,-2.66435 8.51915,-6.40135 8.52879,-8.30445 0.008,-1.90311 1.26316,-3.46019 2.78564,-3.46019 4.54121,0 3.18445,-6.69693 -4.15223,-20.49533 -3.8062,-7.15846 -6.92037,-14.81801 -6.92037,-17.02116 0,-2.20317 -1.17215,-4.00576 -2.60477,-4.00576 -4.61636,0 -6.27316,5.66211 -2.86014,9.77453 1.82388,2.19764 2.66136,5.702 1.86108,7.7875 -0.80027,2.08547 0.92069,7.39542 3.82431,11.79988 6.30009,9.55645 6.61192,12.16034 1.45635,12.16034 -2.12272,0 -7.85996,3.737 -12.74943,8.30445 -10.56608,9.8702 -4.07502,11.94393 10.83077,3.46019 z M 43.620564,510.7088 c 0.367057,-3.87455 0.451513,-3.34702 -3.625003,-22.64388 -1.630634,-7.71876 -2.749908,-23.06519 -2.487293,-34.10319 0.294365,-12.37175 -0.628177,-20.06909 -2.405301,-20.06909 -1.585541,0 -2.882807,2.87608 -2.882807,6.3913 0,3.51522 -1.807242,8.80931 -4.016115,11.76464 -2.671348,3.5741 -3.48225,8.8338 -2.421716,15.70784 1.996445,12.94066 -4.08172,16.35032 -16.2904521,9.13846 -7.52433,-4.44473 -8.66345139,-4.4924 -12.6275252,-0.52833 -3.9640739,3.96408 -3.6895841,4.61091 3.0426674,7.17051 4.0698725,1.54737 7.3997909,4.57946 7.3997909,6.73798 0,5.04493 6.027979,7.28505 19.603457,7.28505 10.315788,0 14.070645,3.21676 8.078043,6.92038 -1.522483,0.94095 -2.76815,3.5058 -2.76815,5.69967 0,4.87527 10.940559,5.38261 11.400404,0.52866 z M 357.90682,470.35267 c -5.67994,-6.27626 -5.80224,-8.77853 -0.42904,-8.77853 5.86937,0 5.15142,-4.53711 -1.82124,-11.50977 -5.97348,-5.97347 -5.97348,-5.97347 0,-4.41138 6.57599,1.71966 7.72748,-0.59463 2.76499,-5.55712 -1.9668,-1.96679 -7.63442,-2.60181 -14.64526,-1.64087 -10.34546,1.41801 -11.75054,0.87891 -14.72514,-5.6496 -1.8086,-3.96947 -4.81966,-7.21721 -6.6912,-7.21721 -1.87155,0 -7.81518,-4.20368 -13.20806,-9.34153 -5.39289,-5.13786 -13.21288,-10.13976 -17.37776,-11.11534 -14.60371,-3.42077 -0.70056,18.95441 18.9236,30.45493 7.48602,4.38713 13.08632,10.48927 16.42836,17.90066 5.12853,11.373 19.1747,21.55243 30.08871,21.80563 4.9339,0.1146 4.97844,-0.20346 0.69204,-4.93987 z m 52.54671,-21.29898 c -2.49321,-1.8231 -4.53312,-4.34118 -4.53312,-5.59576 0,-11.47274 -48.39692,-70.46458 -57.80916,-70.46458 -7.13186,0 -6.76788,9.20758 0.59607,15.07938 8.18711,6.52819 9.37248,9.83397 3.5262,9.83397 -3.23339,0 -3.30301,1.88702 -0.42867,11.62174 3.94907,13.37473 8.00095,15.80057 15.32326,9.17395 6.87442,-6.22127 15.5936,-3.22484 17.95134,6.16919 1.02004,4.06417 4.25805,9.07283 7.19556,11.13037 2.93753,2.05751 5.34095,5.53879 5.34095,7.73617 0,2.19742 1.56885,3.99527 3.48635,3.99527 1.91749,0 5.23814,2.80275 7.37919,6.22834 2.87882,4.60598 4.23309,5.20963 5.199,2.3175 0.71839,-2.15097 -0.73375,-5.40246 -3.22697,-7.22554 z M -5.7721174,443.58117 c -0.4540043,-4.03962 -9.0551726,-43.52645 -11.6283616,-53.38427 -1.146706,-4.39308 -11.099922,6.72555 -11.270606,12.59029 -0.668563,22.97014 0.0055,29.32274 3.546,33.4596 2.149884,2.51143 4.715489,6.83351 5.701338,9.60465 2.559459,7.19439 14.4923721,5.20993 13.6516296,-2.27027 z M 473.00143,361.39892 c 9.38644,-1.38557 8.52228,-6.34557 -1.97792,-11.35276 -5.99319,-2.85798 -9.7401,-6.62836 -9.7401,-9.80119 0,-6.31268 -18.0002,-25.38277 -23.9587,-25.38277 -2.81025,0 -3.72504,1.53776 -2.62307,4.40938 6.54363,17.05247 2.24871,23.33407 -13.28803,19.4346 -18.03242,-4.52584 -57.01545,-55.3837 -57.01545,-74.3832 0,-7.32325 -0.69135,-8.00314 -6.22834,-6.12503 -3.42558,1.16193 -10.27675,2.148 -15.22482,2.19127 -11.48738,0.10048 -12.36295,8.22492 -1.38408,12.84308 17.26144,7.26088 19.90264,9.49555 18.38232,15.55299 -1.16019,4.62256 0.71197,7.21111 8.56753,11.84602 9.65891,5.69887 10.98862,11.46274 2.64439,11.46274 -2.19387,0 -3.98885,1.1438 -3.98885,2.54174 0,1.39797 -0.75609,4.51214 -1.68024,6.92038 -0.92412,2.40826 -0.30128,4.37863 1.38408,4.37863 1.68538,0 3.06431,-1.8685 3.06431,-4.15223 0,-2.58359 2.61435,-4.15222 6.92037,-4.15222 5.77702,0 6.92038,1.31487 6.92038,7.95843 0,6.57945 1.40035,8.23851 8.08181,9.57478 4.7936,0.95872 8.8106,3.91256 9.87302,7.25997 2.0275,6.38809 15.72866,11.17976 17.42404,6.09367 1.51766,-4.55305 6.14338,-3.98057 6.14338,0.76033 0,4.02024 2.81709,5.3162 18.30436,8.42068 4.73872,0.94989 11.58989,5.09129 15.22483,9.20313 6.47966,7.32978 6.62587,7.35752 7.47124,1.41796 0.52392,-3.68092 3.15439,-6.39645 6.70354,-6.92038 z m -126.7398,6.29043 c 4.12188,-6.66939 -3.72626,-16.75927 -11.78249,-15.14804 -6.89879,1.37976 -8.40992,0.47989 -11.42737,-6.80486 -5.26613,-12.71361 2.71569,-19.97067 10.9941,-9.99581 4.83485,5.82562 8.95258,1.04863 6.72987,-7.80735 -1.96068,-7.81202 -17.67816,-8.1571 -25.80611,-0.56661 -6.14299,5.73677 -1.4682,25.19393 7.4665,31.07655 18.65241,12.28081 21.31205,13.31295 23.8255,9.24612 z m 108.666,-79.0074 c -3.95912,-6.21126 -8.31146,-9.61251 -12.39774,-9.68852 -4.10799,-0.0764 -7.21148,-2.52279 -8.92798,-7.03755 -4.00789,-10.54159 -9.26314,-8.74639 -7.16325,2.44698 1.30692,6.96658 0.68841,9.77753 -2.41341,10.9678 -7.3038,2.80273 -1.68218,10.83031 6.51484,9.30314 3.96772,-0.7392 9.70538,-0.32379 12.75034,0.92318 14.34569,5.87479 18.29407,3.52859 11.6372,-6.91503 z m 25.73283,-2.72837 c 0,-2.19739 2.667,-5.8633 5.92666,-8.14644 7.97086,-5.583 1.03427,-22.39733 -10.11938,-24.52949 -10.00075,-1.91177 -10.94815,2.04045 -2.04987,8.55123 7.09751,5.19316 7.25642,5.72373 2.29047,7.64657 -3.87491,1.50039 -6.43096,0.41735 -9.33411,-3.95502 -2.19886,-3.31168 -5.305,-6.02123 -6.90252,-6.02123 -1.59753,0 -5.19023,-2.06847 -7.98379,-4.59662 -7.63985,-6.91396 -8.56278,-3.14686 -2.6236,10.70867 6.88779,16.06861 30.79614,31.86121 30.79614,20.34233 z M 709.86328,106.69733 c 4.86951,-4.86951 4.12861,-9.084157 -3.5986,-20.470858 -3.8062,-5.608754 -6.94808,-12.82666 -6.98193,-16.039788 -0.0339,-3.213127 -2.49748,-8.956218 -5.47474,-12.762424 -2.97726,-3.806207 -5.44088,-8.477459 -5.47474,-10.380563 -0.0338,-1.903103 -1.30723,-3.460187 -2.82971,-3.460187 -3.39638,0 -3.51765,-1.284147 1.41403,14.972732 2.26725,7.473761 4.12227,16.734396 4.12227,20.57919 0,7.476947 10.25746,30.883678 13.53407,30.883678 1.08215,0 3.46237,-1.4948 5.28935,-3.32178 z"
         id="path3012"
         inkscape:connector-curvature="0" />
      <path
         style="fill:#eb9372"
         d="m 120.24739,999.88709 c -0.81196,-0.81196 -14.4105,-3.39965 -30.218957,-5.75047 -15.808489,-2.3508 -38.085204,-6.62358 -49.503823,-9.49509 -41.10215556,-10.33622 -83.317495,-22.14705 -87.979143,-24.61444 -2.614628,-1.38394 -17.833391,-7.28373 -33.819457,-13.11068 -37.3512,-13.61459 -54.47611,-22.95095 -71.71258,-39.09718 -18.88628,-17.69169 -20.7841,-23.86683 -15.51138,-50.47129 1.93435,-9.7602 1.93435,-9.7602 -32.16831,-27.6815 -45.47025,-23.89512 -67.44782,-37.22533 -83.87389,-50.87265 -7.50634,-6.2365 -33.16543,-24.41859 -57.02022,-40.40466 -155.08555,-103.92916 -195.02157,-180.32099 -153.51716,-293.65605 2.4622,-6.72348 6.07665,-17.85723 8.03211,-24.74167 5.96684,-21.00702 29.99375,-71.29713 71.61067,-149.8864 6.9889,-13.19785 14.6651,-30.58939 17.05822,-38.64786 4.0432,-13.61495 18.43086,-32.85725 24.56768,-32.85725 3.99577,0 -0.42903,17.59423 -5.34744,21.26291 -3.97537,2.96527 -3.91628,4.06143 0.63412,11.76464 6.92802,11.72818 17.52377,11.41646 31.95985,-0.94029 8.137,-6.96497 14.412,-9.77915 23.96931,-10.74967 17.50298,-1.77731 35.95546,-6.81836 42.9874,-11.74373 3.18614,-2.23166 9.80501,-4.05756 14.70861,-4.05756 5.60297,0 10.27648,-1.94288 12.57819,-5.22903 2.01438,-2.87597 11.73895,-8.57897 21.61012,-12.67337 9.87117,-4.09437 19.19324,-8.90389 20.71573,-10.68782 4.35194,-5.09927 19.77195,-9.71787 23.90878,-7.16118 5.81638,3.59472 16.90269,-0.40587 24.95241,-9.00427 8.0595,-8.60883 15.48379,-10.13317 17.95743,-3.68695 3.66124,9.54104 26.58775,-7.29875 30.35114,-22.29324 1.87099,-7.45465 11.19791,-11.62199 15.772582,-7.04732 4.947598,4.9476 24.346184,3.72117 28.488776,-1.80113 3.292908,-4.38956 3.809777,-3.99444 5.506985,4.20983 2.163088,10.45644 5.994041,13.98448 8.394,7.73026 3.096148,-8.06844 20.320241,-2.80644 31.014574,9.47501 3.13349,3.59854 3.442941,3.20973 2.191295,-2.75309 -3.446485,-16.41875 11.230855,-22.23677 27.8322809,-11.03257 13.6410561,9.20623 22.0160931,9.99753 12.8393441,1.21311 -14.7404818,-14.11028 -14.2166094,-24.92325 1.087191,-22.43981 9.335696,1.51498 9.489412,1.38347 7.732605,-6.61527 -1.523091,-6.934518 -0.951939,-8.161002 3.800421,-8.161002 3.076079,0 6.362731,-1.245668 7.303681,-2.76815 0.94095,-1.522482 7.242809,-2.76815 14.004126,-2.76815 11.267423,0 12.293299,-0.577519 12.293299,-6.920375 0,-8.91992 5.640991,-8.929824 18.734009,-0.03288 11.470909,7.79467 22.741151,0.795242 33.227381,-20.635987 7.23063,-14.777605 21.23658,-17.502317 35.2043,-6.848619 10.6937,8.156486 18.02401,5.62302 18.02401,-6.229384 0,-5.308339 5.35349,-4.419636 10.62889,1.764441 7.24591,8.494038 29.2201,9.105195 30.39324,0.845316 0.59,-4.153928 3.35181,-6.762482 8.30445,-7.843617 14.36481,-3.135749 14.7817,-3.465864 11.68461,-9.252823 -3.26315,-6.097235 -2.24035,-7.110142 9.77885,-9.684422 6.93131,-1.484551 9.87894,-0.44967 15.91686,5.588249 8.63951,8.63951 9.11524,7.650444 2.74529,-5.707501 -2.56572,-5.380342 -6.30272,-9.78244 -8.30445,-9.78244 -8.68759,0 2.01247,-11.5230686 11.58528,-12.4763945 9.38744,-0.9348651 18.03475,-5.4396055 19.53885,-10.1785812 1.30009,-4.0962253 3.3594,-5.0903173 8.0869,-3.9037893 3.90323,0.9796486 7.65948,0.0053 9.76648,-2.533565 1.88312,-2.269009 5.66076,-4.125468 8.3948,-4.125468 8.52638,0 14.06049,-3.281736 16.54241,-9.809654 1.48578,-3.907941 5.66546,-7.005833 11.047,-8.187816 4.7613,-1.045757 11.84217,-3.553903 15.73524,-5.573659 7.99367,-4.147167 14.69395,-2.691176 14.69395,3.193045 0,7.22192 8.1013,7.18246 20.52785,-0.09999 6.76046,-3.961887 14.91175,-7.203429 18.114,-7.203429 3.20228,0 6.55969,-1.921564 7.46091,-4.27014 2.07769,-5.414363 18.61363,-13.795379 32.01598,-16.22687 5.6645,-1.027664 14.14154,-5.101694 18.83787,-9.053397 7.00411,-5.893579 9.65368,-6.676938 14.74195,-4.358571 4.57805,2.0859 7.5774,1.821462 11.44882,-1.009389 2.88511,-2.109652 7.92674,-3.835732 11.20362,-3.835732 3.27688,0 13.14035,-2.471116 21.91887,-5.491367 8.77853,-3.020253 21.74164,-5.470163 28.8069,-5.444247 19.31601,0.07084 31.81852,-1.259509 35.75436,-3.804523 18.35015,-11.865669 53.21572,3.991979 53.21572,24.203703 0,9.058076 6.09162,17.605832 8.22093,11.535611 1.31939,-3.761279 3.50612,0.03618 8.00561,13.902493 3.40468,10.49249 11.24879,32.101559 17.43129,48.02015643 12.23992,31.51513157 19.43169,56.11812157 15.73643,53.83432557 -1.28464,-0.79395 -2.33571,-3.238528 -2.33571,-5.4324 0,-2.193872 -1.37893,-3.988857 -3.06431,-3.988857 -1.78704,0 -2.28301,2.019197 -1.18987,4.844262 1.03097,2.664345 3.12704,11.0726 4.65794,18.685012 5.34713,26.588523 7.94166,33.888795 14.37584,40.449925 5.63695,5.74814 16.77667,39.49732 15.18402,46.00183 -0.2867,1.17098 0.94241,7.11171 2.73139,13.20164 6.14058,20.90355 7.40552,53.02795 2.28945,58.14402 -6.22474,6.22474 -5.68293,11.9989 1.69353,18.04814 4.9722,4.07757 5.63584,6.12102 3.29058,10.13223 -3.36361,5.75286 -3.3078,68.7624 0.0678,76.45152 1.20514,2.74525 0.64515,12.08776 -1.24445,20.76112 -1.88959,8.67336 -3.61363,18.2611 -3.8312,21.30606 -0.21758,3.04497 -1.34837,7.01781 -2.51285,8.82854 -1.1645,1.81073 -1.30332,8.38227 -0.30853,14.60343 1.36879,8.55998 0.68312,12.555 -2.819,16.42479 -2.85892,3.15907 -4.37579,8.85471 -3.96856,14.9014 0.36254,5.38327 -0.73495,11.46759 -2.43888,13.52067 -1.88447,2.27065 -3.14429,16.5785 -3.21612,36.52573 -0.072,19.94461 -1.33173,34.25517 -3.21571,36.52522 -1.70371,2.05283 -2.28793,6.28353 -1.29831,9.40155 1.41729,4.46552 0.5843,5.66914 -3.92352,5.66914 -3.14758,0 -5.72285,1.77308 -5.72285,3.94018 0,2.16713 -4.16266,9.39361 -9.25038,16.05887 -5.08772,6.66526 -10.08839,15.45749 -11.1126,19.53832 -1.02422,4.08081 -5.46245,11.52007 -9.8627,16.5317 -5.99246,6.82504 -7.63973,10.99924 -6.56314,16.63107 1.13616,5.94352 -0.36919,9.10423 -7.18435,15.0844 -4.74192,4.16097 -8.62168,9.69038 -8.62168,12.28757 0,2.59716 -1.75537,6.47752 -3.90085,8.62298 -2.14545,2.14548 -4.32537,6.77848 -4.84426,10.29558 -1.58568,10.7482 -8.64449,12.90456 -18.73132,5.72209 -4.85556,-3.45744 -9.56493,-5.54961 -10.4653,-4.64924 -2.46221,2.46218 -8.80333,13.57871 -10.71257,18.7801 -0.92634,2.52358 -4.05413,5.20805 -6.95066,5.96553 -2.89651,0.75744 -6.0359,3.38251 -6.97643,5.83346 -0.94051,2.45094 -5.42729,8.4356 -9.9706,13.29921 -8.1369,8.71059 -8.70736,12.43987 -4.5238,29.574 0.52343,2.14366 -2.78534,5.85497 -7.35278,8.24734 -4.56745,2.39241 -11.41862,6.22256 -15.22483,8.51148 -8.63283,5.1915 -18.87416,6.00213 -26.98946,2.13624 -4.60989,-2.19603 -7.95802,-2.04132 -12.88477,0.5954 -3.66102,1.95933 -7.97609,2.74681 -9.58901,1.74997 -1.61295,-0.99686 -12.34612,1.34756 -23.85152,5.2098 -11.5054,3.86223 -23.41071,7.02224 -26.45626,7.02224 -3.18046,0 -6.84425,2.86827 -8.60775,6.73876 -3.38349,7.42595 -30.31338,12.4905 -45.94634,8.64089 -20.06942,-4.94212 -22.61047,-4.84498 -31.08331,1.18823 -6.89825,4.91197 -13.34068,6.28541 -33.51986,7.14595 -13.73918,0.58588 -26.1011,1.75794 -27.47092,2.60452 -1.36982,0.84661 -7.0574,-0.36885 -12.63904,-2.70102 -13.24527,-5.53422 -38.18229,-5.58449 -43.67873,-0.088 -2.28372,2.28373 -6.58003,4.15223 -9.54732,4.15223 -2.96729,0 -6.94578,-1.8685 -8.84111,-4.15223 -1.89532,-2.28372 -6.25516,-4.15222 -9.68852,-4.15222 -3.43337,0 -7.7932,-1.8685 -9.68853,-4.15223 -1.89532,-2.28372 -6.9867,-4.15222 -11.31415,-4.15222 -5.03504,0 -8.93498,-1.99346 -10.83105,-5.5363 -1.62961,-3.04497 -5.45428,-5.5363 -8.49924,-5.5363 -3.04497,0 -8.61288,-2.01585 -12.37314,-4.47967 -4.75407,-3.115 -7.8867,-3.62597 -10.28318,-1.67731 -5.11183,4.15666 -26.31013,2.08096 -32.08067,-3.14129 -2.76076,-2.4984 -6.19548,-4.54251 -7.63278,-4.54251 -1.43734,0 -9.075743,-4.256 -16.974271,-9.4578 -9.456056,-6.22756 -16.348223,-8.93813 -20.179454,-7.93623 -3.970717,1.03836 -7.131917,-0.35355 -9.954212,-4.38295 -2.327156,-3.32247 -7.131308,-5.90452 -10.985984,-5.90452 -3.767646,0 -7.567292,-1.8685 -8.443633,-4.15222 -0.885808,-2.30834 -4.999113,-4.15223 -9.2627,-4.15223 -10.212675,0 -15.264825,-6.08746 -11.261001,-13.56867 3.316106,-6.19622 -7.394697,-14.11283 -19.0939787,-14.11283 -3.1205631,0 -5.6737663,-1.07642 -5.6737663,-2.39207 0,-1.31564 -5.6075799,-4.53364 -12.461298,-7.1511 -6.853745,-2.61745 -14.016334,-6.96258 -15.916862,-9.65586 -1.900557,-2.69324 -14.008223,-13.81528 -26.905892,-24.71559 -15.817099,-13.36764 -23.476044,-21.75746 -23.529275,-25.77463 -0.04734,-3.57958 -3.170335,-7.70808 -7.827111,-10.34759 -7.362365,-4.17307 -13.587072,-12.40785 -17.443802,-23.07674 -2.16245,-5.98197 -3.74644,-6.07634 -7.84776,-0.46743 -8.54553,11.68671 -36.9581,-15.83969 -33.34228,-32.30234 2.57858,-11.74025 -7.91367,-24.66934 -20.01974,-24.66934 -7.02656,0 -9.807,-1.49018 -11.6211,-6.22834 -1.31158,-3.42558 -6.88625,-10.98828 -12.38817,-16.80599 -5.84337,-6.17876 -10.00351,-13.37365 -10.00351,-17.30094 0,-4.87784 -1.51963,-6.72328 -5.5363,-6.72328 -3.04496,0 -5.5363,-1.15902 -5.5363,-2.57562 0,-1.4166 -2.80275,-2.97369 -6.22834,-3.46019 -3.92997,-0.55814 -6.54504,-3.10874 -7.08654,-6.91188 -0.47203,-3.31502 -2.65195,-7.51597 -4.84427,-9.33542 -2.19234,-1.81947 -3.98605,-6.05928 -3.98605,-9.42181 0,-3.71015 -2.75785,-7.5896 -7.01499,-9.86796 -3.85825,-2.06487 -9.56534,-7.88086 -12.68245,-12.92443 -3.1171,-5.04357 -6.8615,-9.17014 -8.3209,-9.17014 -4.33444,0 -24.50457,-23.13835 -24.542,-28.15357 -0.021,-2.82335 -3.11723,-5.30143 -7.94992,-6.36285 -9.35695,-2.05513 -18.80543,-11.73878 -29.11835,-29.84306 -4.11951,-7.23179 -8.64116,-13.14871 -10.04812,-13.14871 -1.40696,0 -0.0504,4.25024 3.01457,9.44498 3.60013,6.10175 4.54692,10.07892 2.67479,11.23598 -4.24681,2.62465 -3.53321,11.33167 1.25435,15.30499 2.36431,1.9622 4.15222,7.99751 4.15222,14.01633 0,5.81364 1.19127,11.30651 2.64725,12.20638 1.45599,0.89984 2.00719,3.30409 1.22488,5.34275 -0.7823,2.03866 0.51777,5.64678 2.88905,8.01806 2.37128,2.37128 4.31142,6.11678 4.31142,8.32332 0,5.99662 7.3242,22.37471 15.18783,33.96244 3.82656,5.63872 6.95737,12.41722 6.95737,15.0633 0,2.6461 1.84594,6.34308 4.10209,8.21551 2.25615,1.87243 8.5313,12.61313 13.94478,23.8682 5.41348,11.25511 10.83449,20.4638 12.04669,20.4638 2.00621,0 14.02569,16.8027 26.47367,37.00903 2.69144,4.36892 8.82807,11.39805 13.63696,15.62031 4.80888,4.22226 13.71042,14.97287 19.78117,23.89027 6.07077,8.91737 15.23999,21.81892 20.37602,28.67009 12.41648,16.56278 61.43582,66.1133 67.22411,67.95254 2.51685,0.79975 13.72786,10.22937 24.913347,20.9547 11.185485,10.72536 24.697074,21.75816 30.025763,24.51737 5.328689,2.75918 12.17986,7.77315 15.224825,11.14213 3.044965,3.36898 10.51897,8.62935 16.6089,11.68968 6.08993,3.06035 13.206124,7.43871 15.813749,9.72968 2.6076526,2.29101 6.6467986,3.43417 8.9758924,2.54042 2.32912139,-0.89376 5.8011012,0.31817 7.7155261,2.69316 9.7387665,12.0817 17.5453095,17.27677 42.5949355,28.34591 15.026792,6.64018 29.893058,14.4212 33.036154,17.29119 3.143096,2.86999 8.125766,5.26231 11.0726,5.31626 2.946834,0.054 8.472058,1.8783 12.278268,4.05412 3.80621,2.17582 9.84224,4.0002 13.41343,4.05412 3.57119,0.054 9.79953,2.38305 13.84075,5.17578 17.23506,11.91035 49.55764,20.65577 99.99089,27.05418 17.55796,2.22756 38.77473,5.16075 47.14838,6.51816 20.74468,3.36289 49.13394,3.46445 51.16194,0.18298 0.98848,-1.59938 11.02198,-2.0589 24.75875,-1.13392 15.28448,1.0292 23.7277,0.53434 24.96218,-1.46308 1.02596,-1.66006 4.68144,-3.0183 8.12322,-3.0183 3.44181,0 9.09797,-3.26648 12.56926,-7.25881 5.57707,-6.41419 7.72549,-7.06499 18.46375,-5.59316 7.52004,1.03075 21.92353,-0.34965 37.78611,-3.62127 32.95565,-6.79705 34.21209,-7.30869 50.00815,-20.36362 12.27182,-10.14227 13.82912,-10.71118 20.11346,-7.34788 5.79648,3.10215 8.26323,2.95339 16.54983,-0.99823 5.3559,-2.55395 13.77844,-4.64362 18.71671,-4.64362 11.07628,0 20.61485,-6.33987 21.78584,-14.48008 0.68747,-4.77905 3.5027,-6.64304 12.79671,-8.47281 17.39434,-3.42456 78.04954,-67.03031 78.04954,-81.84622 0,-5.70472 13.26426,-8.43037 14.68,-3.01657 1.47816,5.65248 -12.51481,27.53933 -17.60676,27.53933 -1.59061,0 -4.78143,4.52197 -7.0907,10.0488 -4.04247,9.67499 -33.81672,40.83035 -48.11369,50.34551 -3.80621,2.53316 -13.77155,9.69073 -22.1452,15.9057 -8.37365,6.21497 -23.9445,16.04389 -34.60188,21.84203 -10.65737,5.79814 -23.11405,14.03928 -27.6815,18.31361 -9.60855,8.99195 -20.50501,13.6474 -31.94284,13.6474 -5.95526,0 -9.11117,1.98307 -12.1145,7.61241 -14.69207,27.53805 -59.80306,59.48073 -140.4703,99.46569 -16.29884,8.07898 -56.50713,21.88496 -79.31041,27.23217 -17.10511,4.01102 -144.14272,6.26392 -147.78579,2.62094 z m 11.38434,-451.80826 c 4.6812,-2.66435 8.51915,-6.40135 8.52879,-8.30445 0.008,-1.90311 1.26316,-3.46019 2.78564,-3.46019 4.54121,0 3.18445,-6.69693 -4.15223,-20.49533 -3.8062,-7.15846 -6.92037,-14.81801 -6.92037,-17.02116 0,-2.20317 -1.17215,-4.00576 -2.60477,-4.00576 -4.61636,0 -6.27316,5.66211 -2.86014,9.77453 1.82388,2.19764 2.66136,5.702 1.86108,7.7875 -0.80027,2.08547 0.92069,7.39542 3.82431,11.79988 6.30009,9.55645 6.61192,12.16034 1.45635,12.16034 -2.12272,0 -7.85996,3.737 -12.74943,8.30445 -10.56608,9.8702 -4.07502,11.94393 10.83077,3.46019 z M 43.620564,510.7088 c 0.367057,-3.87455 0.451513,-3.34702 -3.625003,-22.64388 -1.630634,-7.71876 -2.749908,-23.06519 -2.487293,-34.10319 0.294365,-12.37175 -0.628177,-20.06909 -2.405301,-20.06909 -1.585541,0 -2.882807,2.87608 -2.882807,6.3913 0,3.51522 -1.807242,8.80931 -4.016115,11.76464 -2.671348,3.5741 -3.48225,8.8338 -2.421716,15.70784 1.996445,12.94066 -4.08172,16.35032 -16.2904521,9.13846 -7.52433,-4.44473 -8.66345139,-4.4924 -12.6275252,-0.52833 -3.9640739,3.96408 -3.6895841,4.61091 3.0426674,7.17051 4.0698725,1.54737 7.3997909,4.57946 7.3997909,6.73798 0,5.04493 6.027979,7.28505 19.603457,7.28505 10.315788,0 14.070645,3.21676 8.078043,6.92038 -1.522483,0.94095 -2.76815,3.5058 -2.76815,5.69967 0,4.87527 10.940559,5.38261 11.400404,0.52866 z M 357.90682,470.35267 c -5.67994,-6.27626 -5.80224,-8.77853 -0.42904,-8.77853 5.86937,0 5.15142,-4.53711 -1.82124,-11.50977 -5.97348,-5.97347 -5.97348,-5.97347 0,-4.41138 6.57599,1.71966 7.72748,-0.59463 2.76499,-5.55712 -1.9668,-1.96679 -7.63442,-2.60181 -14.64526,-1.64087 -10.34546,1.41801 -11.75054,0.87891 -14.72514,-5.6496 -1.8086,-3.96947 -4.81966,-7.21721 -6.6912,-7.21721 -1.87155,0 -7.81518,-4.20368 -13.20806,-9.34153 -5.39289,-5.13786 -13.21288,-10.13976 -17.37776,-11.11534 -14.60371,-3.42077 -0.70056,18.95441 18.9236,30.45493 7.48602,4.38713 13.08632,10.48927 16.42836,17.90066 5.12853,11.373 19.1747,21.55243 30.08871,21.80563 4.9339,0.1146 4.97844,-0.20346 0.69204,-4.93987 z m 52.54671,-21.29898 c -2.49321,-1.8231 -4.53312,-4.34118 -4.53312,-5.59576 0,-11.47274 -48.39692,-70.46458 -57.80916,-70.46458 -7.13186,0 -6.76788,9.20758 0.59607,15.07938 8.18711,6.52819 9.37248,9.83397 3.5262,9.83397 -3.23339,0 -3.30301,1.88702 -0.42867,11.62174 3.94907,13.37473 8.00095,15.80057 15.32326,9.17395 6.87442,-6.22127 15.5936,-3.22484 17.95134,6.16919 1.02004,4.06417 4.25805,9.07283 7.19556,11.13037 2.93753,2.05751 5.34095,5.53879 5.34095,7.73617 0,2.19742 1.56885,3.99527 3.48635,3.99527 1.91749,0 5.23814,2.80275 7.37919,6.22834 2.87882,4.60598 4.23309,5.20963 5.199,2.3175 0.71839,-2.15097 -0.73375,-5.40246 -3.22697,-7.22554 z M -5.7721174,443.58117 c -0.4540043,-4.03962 -9.0551726,-43.52645 -11.6283616,-53.38427 -1.146706,-4.39308 -11.099922,6.72555 -11.270606,12.59029 -0.668563,22.97014 0.0055,29.32274 3.546,33.4596 2.149884,2.51143 4.715489,6.83351 5.701338,9.60465 2.559459,7.19439 14.4923721,5.20993 13.6516296,-2.27027 z M 473.00143,361.39892 c 9.38644,-1.38557 8.52228,-6.34557 -1.97792,-11.35276 -5.99319,-2.85798 -9.7401,-6.62836 -9.7401,-9.80119 0,-6.31268 -18.0002,-25.38277 -23.9587,-25.38277 -2.81025,0 -3.72504,1.53776 -2.62307,4.40938 6.54363,17.05247 2.24871,23.33407 -13.28803,19.4346 -18.03242,-4.52584 -57.01545,-55.3837 -57.01545,-74.3832 0,-7.32325 -0.69135,-8.00314 -6.22834,-6.12503 -3.42558,1.16193 -10.27675,2.148 -15.22482,2.19127 -11.48738,0.10048 -12.36295,8.22492 -1.38408,12.84308 17.26144,7.26088 19.90264,9.49555 18.38232,15.55299 -1.16019,4.62256 0.71197,7.21111 8.56753,11.84602 9.65891,5.69887 10.98862,11.46274 2.64439,11.46274 -2.19387,0 -3.98885,1.1438 -3.98885,2.54174 0,1.39797 -0.75609,4.51214 -1.68024,6.92038 -0.92412,2.40826 -0.30128,4.37863 1.38408,4.37863 1.68538,0 3.06431,-1.8685 3.06431,-4.15223 0,-2.58359 2.61435,-4.15222 6.92037,-4.15222 5.77702,0 6.92038,1.31487 6.92038,7.95843 0,6.57945 1.40035,8.23851 8.08181,9.57478 4.7936,0.95872 8.8106,3.91256 9.87302,7.25997 2.0275,6.38809 15.72866,11.17976 17.42404,6.09367 1.51766,-4.55305 6.14338,-3.98057 6.14338,0.76033 0,4.02024 2.81709,5.3162 18.30436,8.42068 4.73872,0.94989 11.58989,5.09129 15.22483,9.20313 6.47966,7.32978 6.62587,7.35752 7.47124,1.41796 0.52392,-3.68092 3.15439,-6.39645 6.70354,-6.92038 z m -126.7398,6.29043 c 4.12188,-6.66939 -3.72626,-16.75927 -11.78249,-15.14804 -6.89879,1.37976 -8.40992,0.47989 -11.42737,-6.80486 -5.26613,-12.71361 2.71569,-19.97067 10.9941,-9.99581 4.83485,5.82562 8.95258,1.04863 6.72987,-7.80735 -1.96068,-7.81202 -17.67816,-8.1571 -25.80611,-0.56661 -6.14299,5.73677 -1.4682,25.19393 7.4665,31.07655 18.65241,12.28081 21.31205,13.31295 23.8255,9.24612 z m 108.666,-79.0074 c -3.95912,-6.21126 -8.31146,-9.61251 -12.39774,-9.68852 -4.10799,-0.0764 -7.21148,-2.52279 -8.92798,-7.03755 -4.00789,-10.54159 -9.26314,-8.74639 -7.16325,2.44698 1.30692,6.96658 0.68841,9.77753 -2.41341,10.9678 -7.3038,2.80273 -1.68218,10.83031 6.51484,9.30314 3.96772,-0.7392 9.70538,-0.32379 12.75034,0.92318 14.34569,5.87479 18.29407,3.52859 11.6372,-6.91503 z m 25.73283,-2.72837 c 0,-2.19739 2.667,-5.8633 5.92666,-8.14644 7.97086,-5.583 1.03427,-22.39733 -10.11938,-24.52949 -10.00075,-1.91177 -10.94815,2.04045 -2.04987,8.55123 7.09751,5.19316 7.25642,5.72373 2.29047,7.64657 -3.87491,1.50039 -6.43096,0.41735 -9.33411,-3.95502 -2.19886,-3.31168 -5.305,-6.02123 -6.90252,-6.02123 -1.59753,0 -5.19023,-2.06847 -7.98379,-4.59662 -7.63985,-6.91396 -8.56278,-3.14686 -2.6236,10.70867 6.88779,16.06861 30.79614,31.86121 30.79614,20.34233 z m 212.42116,409.26418 c -3.67162,-3.67159 -2.14994,-12.56915 3.50869,-20.51595 8.23189,-11.56063 27.66577,-54.9865 27.6777,-61.84709 0.006,-3.274 2.49701,-10.03125 5.5363,-15.0161 3.03927,-4.98486 5.5306,-11.83603 5.5363,-15.22483 0.0138,-7.99749 10.34012,-24.92743 13.87303,-22.74397 1.49904,0.92644 2.72552,0.15778 2.72552,-1.70842 0,-1.8661 0.59828,-2.79462 1.32949,-2.06338 2.24569,2.24569 -7.23708,36.78647 -10.91072,39.74202 -3.15697,2.53989 -7.67146,12.5573 -8.72778,19.36642 -0.23613,1.52248 -0.65719,3.39098 -0.93556,4.15223 -0.27836,0.76124 -1.03534,5.44118 -1.68217,10.39985 -2.32572,17.82891 -32.86237,70.52767 -37.9308,65.45922 z m 57.53464,-153.17455 c -0.88348,-2.7836 0.16692,-10.50546 2.33399,-17.15968 2.16716,-6.65425 5.39518,-22.68679 7.17336,-35.62789 1.77818,-12.9411 4.43815,-29.13478 5.91105,-35.98595 6.5629,-30.52688 8.21867,-119.67611 2.5931,-139.61341 -5.0188,-17.7868 -5.54801,-60.13296 -0.77174,-61.75083 2.2391,-0.75845 3.46019,1.64458 3.46019,6.80945 0,4.38982 1.33087,9.31236 2.95749,10.93898 8.35087,8.35087 14.35006,107.78165 6.94955,115.18217 -4.98651,4.98651 -5.75387,10.3025 -1.48716,10.3025 4.22783,0 -1.88195,71.07064 -8.329,96.88524 -1.33082,5.32869 -4.62613,19.30093 -7.32292,31.04943 -4.83989,21.08485 -10.33852,28.82983 -13.46791,18.96999 z m 12.62883,-308.61076 c -1.4628,-4.69431 -4.63281,-20.9918 -7.04445,-36.21662 -2.41166,-15.22483 -6.11979,-35.77834 -8.24028,-45.67447 -2.12049,-9.89614 -5.25752,-24.84415 -6.97117,-33.2178 -1.71365,-8.37366 -6.16788,-21.453165 -9.89832,-29.065577 -3.73042,-7.612412 -6.79399,-16.047485 -6.80791,-18.74461 -0.0138,-2.697122 -4.2704,-15.77663 -9.45885,-29.065574 -5.18845,-13.28894 -12.05845,-32.2585512 -15.26665,-42.154687 -3.20823,-9.896136 -7.05544,-20.148718 -8.54935,-22.783518 -1.49392,-2.634797 -6.05137,-14.468638 -10.12769,-26.297424 -4.07633,-11.828783 -11.41488,-29.603718 -16.30795,-39.499854 -15.01348,-30.364486 -19.06375,-55.790866 -9.68656,-60.809396 6.50917,-3.48359 5.16061,-5.67695 20.36788,33.1279 52.57564,134.158852 98.83057,300.29917 98.83057,354.98366 0,7.42678 -8.1739,3.97147 -10.83927,-4.58203 z"
         id="path3010"
         inkscape:connector-curvature="0" />
      <path
         style="fill:#a1a4a0"
         d="M 120.24739,999.88709 C 28.730473,982.79854 -67.232169,964.77631 -146.4884,913.57651 c -40.40179,-23.70813 -3.0017,-82.10877 -62.43261,-88.26925 -68.22353,-35.99389 -128.38768,-85.05556 -191.32844,-129.30887 -64.90269,-47.86566 -127.76027,-124.17306 -106.50888,-210.37044 20.52711,-94.60114 73.78333,-176.88006 114.62793,-263.25286 20.92595,11.12493 21.76555,49.25764 48.97451,8.81811 51.33578,-14.28173 100.69139,-34.76251 149.77811,-57.5168 35.62398,-13.08238 69.06002,-14.09861 92.39833,-45.53784 32.467283,5.88672 59.744454,11.25198 82.757779,17.8344 C -34.165968,103.32085 52.65581,168.04265 12.901241,117.66963 37.118142,105.83787 60.306568,65.979203 92.773133,86.265889 115.92833,75.453328 138.26098,24.723145 162.32321,69.752293 c 7.94079,37.564287 40.84954,8.359527 6.33301,-6.322256 6.32672,-25.660617 42.84356,8.244174 57.20038,-18.545308 6.33968,-40.6012893 65.54378,20.824707 28.64623,-30.595822 25.95948,-23.1362672 64.65364,-28.41869 96.70905,-53.980799 43.03797,22.124153 82.25772,-32.483282 127.46689,-36.296972 46.82546,-3.289296 116.14817,-40.908626 152.17343,2.132818 34.13639,52.325434 41.86073,114.227852 61.40507,171.729472 19.82905,51.331004 20.60439,107.649624 25.20569,157.373084 11.32819,63.60862 -1.16854,124.68636 -11.71036,186.95058 -1.4467,57.95388 -25.9735,112.897 -62.34103,157.72121 -8.31585,49.82069 -67.92409,52.67724 -89.66389,99.48931 15.71144,50.73506 -49.91858,-22.05996 -37.67528,31.16658 -46.65799,3.84788 -96.97696,35.50889 -135.13895,29.85678 -35.50796,-22.17342 -81.97183,42.87386 -123.27011,0.22176 -39.51998,26.22849 -98.58395,-16.5562 -132.38149,-29.5079 -26.819234,1.49831 -76.94892,-25.01677 -95.727021,-61.88732 -35.6012244,-4.49615 -58.286414,-41.09546 -91.33276,-46.4699 -15.417091,-38.17727 -75.787639,-58.7736 -79.192169,-101.83174 -37.67199,-16.36178 -49.04335,-30.61332 -70.28819,-63.40216 -29.45658,-32.31849 -60.41134,-70.34603 -93.41426,-103.04271 -17.74237,-19.42891 -38.58137,-38.74206 -27.87409,-2.18716 7.78429,39.06179 23.89111,76.82184 42.09824,113.69552 26.24297,47.44993 59.5776,89.96889 93.80298,131.94751 48.6926,68.29869 115.804395,121.70319 185.164104,167.37792 43.327788,20.12595 85.520114,56.20615 135.830916,65.85605 56.4859,31.66494 123.98925,32.45501 186.83564,39.77038 56.79524,2.72943 100.88794,-22.54434 156.18826,-26.77973 35.72599,-29.00399 83.93677,-18.12783 116.21121,-45.54239 45.60295,-13.39325 72.2185,-79.2827 105.52625,-93.3356 -25.11444,50.85012 -71.03865,91.74254 -120.83315,120.69644 -52.02274,27.51297 -91.53196,56.39835 -135.04533,95.85719 -72.4595,47.34173 -155.32766,86.58447 -244.14046,79.57977 -22.87185,-0.2463 -46.14426,1.7552 -68.84463,-1.55981 z m 20.96552,-456.65253 c 21.50812,-24.60218 -34.32467,-77.17665 -11.26399,-17.92471 9.05313,16.41055 -39.374887,-9.16892 -9.42986,14.0478 -25.67912,27.35575 9.44601,25.90323 20.69385,3.87691 z M 77.997887,558.2923 C 46.479716,525.50253 39.249179,472.31393 33.17658,432.64983 c -6.934426,34.74369 -12.826289,56.21263 -45.023661,29.44318 14.3640468,-14.2158 -2.087093,-99.33258 -18.534499,-79.50852 11.867918,24.54594 -39.26305,-27.04811 -11.527785,18.21131 32.1161468,8.83106 -27.939927,6.96747 7.227641,23.99064 -5.163812,11.7328 18.826401,39.812 8.930456,54.1569 11.894903,13.00335 77.258566,15.89413 47.52706,35.0071 24.640068,5.67007 35.620997,44.36754 56.222095,44.34186 z M 408.68856,516.85028 c -29.08656,-17.41912 -11.06493,-50.57829 -49.82663,-49.31014 46.57332,-24.8477 -48.16018,-30.03194 -56.50378,-60.08742 -26.63426,-46.7113 -5.13114,33.79018 -14.70097,30.88564 -3.17662,-43.05264 80.50084,48.82483 68.79294,45.79084 -11.49262,20.02717 16.0645,49.00174 11.76017,11.50536 13.38796,3.46847 25.05757,29.11138 40.47827,21.21572 z M 217.68621,513.0872 c -7.39953,-39.96363 -77.49117,-74.64871 -28.83898,-22.40856 3.50126,10.17157 18.61988,23.9161 28.83898,22.40856 z M 460.56084,500.45657 C 432.0793,476.946 409.45329,436.87238 379.40155,400.16728 c -17.02083,-24.34179 -49.74495,-49.7782 -53.37757,-65.68332 17.90635,19.61895 28.92583,-47.16698 24.59148,-9.24585 22.22366,6.38702 53.5816,47.35022 42.9194,12.4232 19.35042,24.41131 114.28383,50.96617 71.29899,6.06001 -9.74689,-27.29218 -36.76236,-36.66325 -31.01217,-7.4835 -63.76524,8.55894 -55.13101,-118.34414 -105.73946,-69.39335 24.41505,13.06227 69.28024,61.59516 8.38201,33.94394 -37.59572,-39.07313 -33.40984,-6.13855 -1.13165,12.79333 -64.32824,17.98506 26.38054,67.74171 5.74729,92.45432 13.57488,9.56883 13.41711,29.26168 38.67032,15.5282 24.40939,22.43789 45.103,90.51905 80.81065,78.89231 z M 273.56536,366.04559 c 1.3676,-20.01424 -62.50444,-43.0668 -9.72918,-27.7352 -13.66807,-58.42209 -45.87949,0.83472 -9.6191,24.95049 4.81219,5.11658 15.8,15.482 19.34828,2.78471 z m 193.25435,-67.34795 c -17.50835,-19.21325 -40.37977,-39.83545 -51.64056,-27.0601 4.00013,-30.96434 -38.46109,-31.45561 -18.22433,-17.32081 7.96631,22.61675 24.39025,51.91151 69.86489,44.38091 z m 16.6089,-14.26192 c 31.13969,-41.52986 -43.63372,-15.52841 -47.44282,-54.81907 -11.52916,17.92538 22.05157,54.87612 46.73905,59.39579 l 0.70377,-4.57672 0,0 z m 209.65301,410.78204 c 15.45183,-41.87671 31.38073,-99.96642 58.05692,-135.15491 -7.70208,27.41416 -23.39863,106.02992 -58.05692,135.15491 z m 57.53464,-153.17455 c 16.37472,-83.52754 30.82263,-170.38144 14.30242,-255.31516 -0.48898,-80.36731 24.85639,33.77739 19.55976,60.61335 -8.0374,51.91802 -0.31148,104.01917 -16.22057,157.79968 -3.95726,7.09235 -5.89518,50.82485 -17.64161,36.90213 z M 763.24509,233.43245 C 752.01313,168.1253 740.15969,102.88735 714.82411,41.447799 697.39409,-21.273025 660.01027,-78.745331 650.33216,-142.74843 c 27.38561,-15.30021 35.11785,71.075048 51.26802,97.06092 30.26622,92.623514 63.70418,186.11241 72.48418,283.70199 -0.57609,9.7154 -11.08349,-0.51545 -10.83927,-4.58203 z"
         id="path3008"
         inkscape:connector-curvature="0" />
      <path
         style="fill:#ee706a"
         d="M 178.20403,919.55585 C 119.10108,914.54115 59.759256,911.23647 1.77051,897.36041 -92.719291,876.25992 -186.53986,841.14129 -266.74982,786.35325 c -17.41087,-55.69176 -69.49553,-91.10814 -109.02257,-130.8012 -19.40599,-4.03026 -50.13991,-33.52661 -63.00503,-69.2444 -19.20873,-26.60178 -29.63556,-95.57472 -56.33177,-38.91563 -15.33907,20.32367 -10.82154,-79.0121 0.0492,-102.70996 23.36401,-78.66345 68.68141,-148.36482 102.92956,-222.30697 19.70998,21.98563 28.25733,39.47915 55.50294,4.07512 51.76941,-6.5892 95.67001,-34.23901 143.24968,-52.77381 28.78521,-7.51971 45.50621,-16.20366 72.18611,-23.39347 17.17282,-44.54251 61.008219,-4.73636 89.739091,-10.37825 20.384875,30.74147 0.292484,-36.87871 37.6213749,-6.3563 C 47.566345,161.43343 -10.799535,102.46173 30.527149,112.03354 27.771453,88.933881 83.228605,72.634492 75.0807,79.495383 c 34.59011,26.191007 66.86677,-72.3839698 90.1814,-1.204472 17.49562,28.629749 29.67272,-6.789943 3.39412,-14.860874 3.48154,-30.26021 42.57851,13.87449 53.27012,-18.921132 13.31221,-10.204463 26.44579,-26.822068 45.6928,-4.572684 -39.51834,-51.426275 44.24227,-38.5558387 63.23676,-70.003613 36.02243,-15.143933 73.28614,3.311845 105.67667,-32.298521 52.15124,-21.031641 104.03857,-25.843578 160.11412,-32.383732 54.64304,12.107079 67.37634,95.0257151 78.98822,144.362532 24.47265,54.651813 34.74404,115.518683 39.65644,172.211493 2.14869,50.59917 15.24388,108.0562 -1.07056,160.11923 -11.19631,55.62513 -6.13309,115.60563 -36.87347,165.93421 -30.65006,35.35347 -34.41224,89.77538 -80.08554,103.58412 -24.83164,17.11138 -43.72211,52.5317 -49.83173,69.35277 -37.68117,-39.61019 -22.46672,29.40729 -64.41307,18.27276 -48.25118,-0.3824 -84.58441,45.24002 -125.1217,12.14815 -36.59197,45.9458 -90.94822,-4.05661 -130.53169,21.23315 C 188.17801,760.39804 136.373,734.25428 112.77947,730.41874 69.638375,726.78677 42.320436,680.03081 9.5786552,657.05126 -19.016867,654.18165 -46.293131,626.11528 -65.144118,612.54779 c -34.577699,-23.76181 -63.228422,-70.40492 -86.436832,-94.0134 -31.96021,-22.71955 -43.53289,-32.07245 -64.39381,-69.48779 -32.43249,-27.95762 -60.61606,-68.8315 -93.62633,-99.85905 -42.99,-50.5659 -16.29021,23.07194 -11.39797,47.06681 19.53268,52.35582 47.35332,102.40503 81.28371,147.532 44.83428,54.19636 83.52155,115.6527 142.303141,156.79311 39.764193,41.48694 91.2074971,63.65848 136.594455,94.44431 48.389387,24.66223 97.650834,46.16627 150.187314,60.13508 51.48691,6.58177 103.92783,21.75887 155.61189,11.84033 54.47685,-7.35524 110.4039,-16.15799 161.43742,-40.88028 44.44236,-10.25935 87.47216,-22.40429 122.30191,-59.43767 17.44616,-13.15028 78.0399,-100.56397 46.505,-39.45639 -39.30553,58.25184 -102.00674,91.96766 -159.91953,127.64004 -83.03784,11.41721 -158.13959,59.60941 -243.42547,62.84779 -30.86716,1.61077 -63.06845,7.66323 -93.67675,1.84317 z M 141.21291,543.23456 c 21.38401,-24.34357 -34.04734,-79.28176 -11.26399,-17.92471 9.05313,16.41055 -39.374887,-9.16892 -9.42986,14.0478 -25.67912,27.35575 9.44601,25.90323 20.69385,3.87691 z M 77.997887,558.2923 C 46.479716,525.50253 39.249179,472.31393 33.17658,432.64983 38.720252,477.70092 -4.7878143,485.6518 -9.5937423,454.14803 2.8607645,425.23436 -24.463071,350.90798 -35.454924,390.53418 c -25.325274,-30.90983 5.674922,19.5224 2.199011,19.27723 -30.16885,2.18104 25.7065101,46.1834 7.504645,69.13193 10.939927,12.55524 56.627347,11.8595 55.196988,28.68581 -19.7579674,10.44539 38.901723,32.52905 44.785797,53.45612 l 3.76637,-2.79297 0,0 z M 408.68856,516.85028 c -28.68221,-17.18946 -11.26461,-50.58311 -49.82663,-49.31014 45.61381,-26.43763 -47.743,-29.88513 -56.50378,-60.08742 -24.93901,-34.67638 -18.8101,-2.35851 -19.62026,15.36724 -10.5184,31.90357 22.98863,-1.74553 6.84537,0.62852 34.06879,28.16517 69.83058,49.23783 69.27875,86.90714 12.63876,24.22216 -0.4806,-39.6922 23.1837,-4.19981 0.45698,7.00787 23.86222,15.22962 26.64285,10.69447 z M 217.68621,513.0872 c -5.26633,-27.62199 -71.93432,-87.57597 -35.44687,-25.41807 12.57566,5.00844 18.98106,28.48273 35.44687,25.41807 z M 460.56084,500.45657 C 432.0793,476.946 409.45329,436.87238 379.40155,400.16728 c -16.79753,-24.63445 -48.532,-50.51077 -53.37757,-65.68332 20.77375,22.2405 20.29078,-45.2425 28.02432,-12.42499 4.75982,7.4973 55.68529,51.19895 39.48656,15.60234 19.83774,18.65538 98.92455,52.95346 78.82121,11.80276 -14.54676,-20.25259 -42.89969,-50.58289 -38.58154,-13.22354 -63.9464,8.69114 -53.19064,-120.82743 -105.69231,-69.39606 24.41505,13.06227 69.28024,61.59516 8.38201,33.94394 -14.45228,-20.5161 -48.49058,-28.74506 -16.86709,0.63759 44.74832,16.43683 -43.84524,26.09107 0.36416,56.56429 38.8773,16.81381 6.55362,46.17126 30.55373,57.39932 3.36146,27.18823 37.89986,-14.12873 42.54119,26.83884 22.94704,15.98216 35.7345,72.82831 67.50462,58.22812 z M 273.56536,366.04559 c -0.0484,-20.85451 -60.80244,-42.08089 -9.72918,-27.7352 -10.03452,-40.70717 -33.8881,-26.27149 -24.44702,8.26986 6.657,5.74246 25.89042,38.23122 34.1762,19.46534 z m 193.25435,-67.34795 c -17.50835,-19.21325 -40.37977,-39.83545 -51.64056,-27.0601 4.00013,-30.96434 -38.46109,-31.45561 -18.22433,-17.32081 5.65717,21.90574 30.24387,53.77759 69.86489,44.38091 z m 16.6089,-14.26192 c 31.66135,-37.76922 -33.334,-18.24111 -40.25776,-44.99985 -14.08242,-25.54871 -19.00275,18.50873 1.57624,13.51214 -3.06123,13.71568 31.23483,51.34071 38.68152,31.48771 z m 207.61125,403.86199 c 23.1735,-29.33962 39.151,-119.42951 57.31176,-119.16953 -12.61941,34.46002 -28.89847,112.85827 -57.31176,119.16953 z m 59.70966,-145.8346 c 15.87122,-83.48834 30.76995,-170.17925 14.3232,-255.07426 -1.26024,-79.72042 22.89876,38.88532 16.47141,65.35594 -2.87218,64.48418 -6.8986,130.25959 -26.33368,192.07682 l -2.38663,1.15093 -2.0743,-3.50943 0,0 z M 763.48146,234.14865 C 752.02734,172.22662 742.27902,109.76169 718.48899,51.216285 698.68358,-10.496969 669.43075,-69.051301 650.87895,-130.83693 c 0.74943,-68.49214 54.65311,110.14388 40.15685,62.68745 33.17446,100.578433 72.03136,202.72731 78.05656,308.83459 l -2.76105,-0.33538 -2.84985,-6.20108 0,0 z"
         id="path3006"
         inkscape:connector-curvature="0" />
      <path
         style="fill:#ed584c"
         d="m 178.20403,919.55585 c -155.869942,-7.33013 -314.30915,-44.88401 -444.95385,-133.2026 -24.10807,-62.81543 -80.59406,-108.66128 -134.09361,-145.06389 -41.34199,-25.53921 -40.04471,-98.63517 -80.79992,-113.62527 -39.19528,58.75086 -21.86397,-74.6578 -8.92079,-97.74389 23.97939,-73.38004 68.23812,-137.66336 97.77941,-208.63573 30.59933,59.80939 83.55534,-12.66762 134.77819,-6.47746 54.54165,-4.06101 87.87471,-51.06644 148.89947,-43.07366 20.894629,-1.58856 7.73695,-46.23877 46.223529,-21.19632 23.156553,4.5349 28.621443,-15.90565 50.827631,9.28131 24.82331,-12.17704 -15.883782,-38.01485 30.469274,-16.99859 24.484522,-1.81929 24.920792,-4.98019 43.89069,-0.25713 4.681931,-25.94038 -53.76307,-50.761247 -0.881192,-45.935641 20.958195,9.101691 -6.564511,36.990861 28.222999,32.007281 2.17672,-34.651388 -42.720697,-55.726523 8.747962,-37.843072 36.924917,2.592746 17.398517,-58.588249 55.371867,-25.166969 6.22512,35.141561 82.50625,47.583191 30.20539,9.387087 -32.05732,-49.674408 90.9804,47.490024 35.71553,-15.772481 10.51147,-44.760705 79.18889,10.769859 46.77265,-43.653459 47.01502,-25.859368 114.98451,-29.043611 162.78259,-60.755051 46.42378,-15.386929 94.81688,-38.452125 143.40481,-31.508073 45.99546,-14.872826 85.58695,48.099829 71.32078,92.989885 -28.09397,32.703663 41.00686,42.694211 10.69346,65.621641 -1.01665,21.133152 0.67941,58.305042 22.98429,24.690092 23.34196,31.69529 -8.22773,51.47086 -7.64102,47.24607 39.49475,23.48885 3.3333,64.24451 37.832,96.70279 15.62915,25.91183 -24.30604,80.27526 -25.50525,70.47851 12.87702,-6.36134 44.75917,-15.69867 18.26184,7.28978 33.71943,23.55979 -20.38055,55.239 2.71484,87.69924 -15.62384,48.22544 -12.50445,90.34618 -38.64751,131.54178 -12.28086,47.45082 -49.82883,91.89373 -89.24613,117.86227 -36.21301,47.42228 -91.31436,78.79179 -152.03286,76.94795 -36.10988,-6.27081 -104.51181,25.90832 -113.12574,-19.95256 -16.0157,23.25638 -21.05581,60.41111 -46.68613,27.03282 -33.99722,-27.59491 -46.09036,7.93386 -46.8414,7.64108 -16.06609,-28.51765 -10.98301,-30.22537 -16.3787,-3.27709 -25.06934,6.93202 -91.333,-42.94167 -30.18597,-23.34194 40.56433,-9.12397 -81.620346,-23.52623 -25.69417,-42.53624 17.74627,-33.19374 22.03802,-4.36416 39.38588,1.63853 -20.73565,32.79273 9.33706,18.24687 30.67238,19.99661 -26.22007,-14.81807 1.78221,-77.30488 8.00676,-19.06619 14.22152,29.74428 76.98946,-2.26539 27.72557,1.45148 -15.60804,-36.51587 39.91958,-0.0199 24.28301,-28.87523 24.88312,-23.01983 -17.41682,-32.62848 -13.96342,-62.0283 -33.37658,61.26947 -54.33118,-86.0453 -54.15962,-18.87853 -3.66121,11.77082 -28.21547,43.06747 3.4817,31.16049 -35.82241,60.50608 -103.57325,-46.48583 -39.94088,-37.78316 25.97338,4.43893 10.64267,-23.64812 -8.25243,-11.35148 -14.36813,-40.97933 -27.8572,-71.89166 -62.642175,-97.23143 -9.041549,-19.98556 -35.408656,-71.41324 -20.029299,-22.67137 -9.586164,37.0769 -10.327945,76.81017 16.582253,48.38098 28.427651,44.03239 -30.42552,80.89005 -42.826976,21.46413 -23.634963,-22.13379 2.223683,-93.0285 -25.103281,-91.03369 8.154094,49.84111 -32.0599867,63.04531 -33.1817731,7.00891 C 9.9512127,387.91239 -59.499413,314.83611 -67.76294,384.2608 c -6.092069,62.21274 -43.02564,-10.88108 -33.935,-37.01633 -8.4738,-24.12282 -89.60202,-12.18711 -33.82467,7.90659 28.06731,12.75422 31.84303,70.79027 71.02772,73.09158 -31.386429,39.47982 -50.18809,-19.9844 -64.89803,-36.21814 -12.35779,1.94834 -39.98313,-13.73841 -24.94496,15.20547 51.2328,6.06326 -1.71363,25.65873 -26.58237,15.4762 -53.90482,20.44077 -101.38859,-60.21341 -145.69069,-90.16602 -13.0094,58.54283 32.66618,121.05577 60.36732,172.95581 57.5239,81.13856 117.74619,163.17288 199.951037,221.43036 53.48306,39.09597 111.091233,73.73721 172.138113,99.49967 67.52552,30.82292 141.97881,40.99703 215.8458,44.74081 59.19997,-7.43653 120.70144,-18.26553 174.37348,-42.47219 52.05944,-11.05893 106.82126,-26.83149 140.58316,-71.16955 8.89905,-17.24475 70.40909,-75.55572 35.57221,-25.66361 C 615.23926,804.96426 531.2868,852.87984 441.83276,873.9901 357.01038,903.42203 269.21593,929.85488 178.20403,919.55585 z M 381.00706,641.50389 c 49.69467,4.84072 -64.26138,-52.40424 -11.95614,-55.0808 13.48007,-4.6382 -51.37224,-37.05676 -48.17622,-66.0451 -24.64093,-18.65801 -27.79277,-97.54804 4.44785,-44.51617 18.65118,46.38112 50.34922,87.98619 86.45919,119.39996 24.22908,19.54459 0.0287,-45.72502 23.96542,-55.50166 0.0467,-18.84828 -30.57131,5.39118 -12.67828,-18.50035 -53.41134,-49.8518 87.7333,20.75419 60.12643,-25.11305 -8.67372,-2.99897 18.17153,-22.35317 -11.35685,-31.91133 21.39883,-5.08143 22.609,-1.24843 2.7673,-22.65717 34.35284,14.89002 40.29448,-26.65073 8.17541,-24.93796 -22.28275,0.33433 -73.21763,-40.67655 -36.70565,-40.45299 29.75849,36.75885 83.17807,31.91699 109.96012,14.79184 25.68553,8.89111 -25.42529,-37.40316 15.13931,-8.52939 26.38002,25.06778 28.02512,24.50385 17.77376,-0.64599 33.18189,8.98761 -19.46822,-32.15455 -3.25824,-50.62588 -18.02327,-39.42096 -89.26303,44.75454 -78.93934,-27.14697 17.95517,-10.2675 -43.99278,-11.60362 -4.74754,-27.92279 47.83873,-8.99854 3.42755,72.41778 53.19266,31.04263 -40.76436,-23.48793 7.58788,-9.81651 22.51705,-5.18861 5.20044,-21.66979 -70.51563,-28.04182 -20.88719,-38.8555 36.08638,15.84018 -8.85804,-67.92853 3.69668,-89.17315 -33.96798,-27.56416 -24.65842,-8.51864 -13.86692,11.0645 -30.34338,18.4104 -44.20126,21.94107 -2.59401,31.49399 -9.09644,39.43481 -53.30531,-5.45391 -45.37504,-33.66391 -25.2242,-13.94527 -27.82178,-56.80036 -64.40978,-20.94594 2.14298,33.8416 118.17704,90.36027 31.8254,83.40259 -39.69536,-9.26287 -58.74224,-80.3092 -51.77879,-103.61682 1.21431,-31.23852 12.46204,-60.949621 -15.81244,-31.84234 25.9753,60.37431 -43.24144,55.67859 -66.26384,66.66263 31.28813,-11.80183 87.21134,40.05313 26.74705,41.15237 -27.23219,-3.8163 -92.23145,17.77458 -43.34468,35.48656 -13.92929,22.76662 -40.70147,10.7826 -39.44074,-6.32658 -27.39603,42.63826 -109.18763,14.23575 -107.76201,63.92969 -18.50396,-62.78734 -68.845237,-4.8408 -113.814716,-29.19363 -26.887656,-17.17597 33.528122,-34.93838 -12.51711,-22.82158 -22.728141,-7.52469 -72.81136,17.46666 -23.830159,13.42716 42.974802,-9.37192 6.821031,45.54097 -15.2243341,12.55735 -38.5665739,7.43403 51.1587681,59.49371 22.6181211,50.54416 20.521288,16.09516 52.523799,-21.42743 24.729947,10.24407 -25.038315,15.94488 -66.045118,-9.10126 -57.186245,-13.66045 -22.248206,26.54399 35.809447,37.57161 37.731584,67.70935 29.968339,2.03722 70.753822,7.89756 50.432372,-39.47893 -13.280743,-27.03682 -38.866231,-83.95818 19.16021,-59.49749 21.43877,34.01423 14.09416,17.82055 32.94257,2.23349 14.44894,1.9095 11.76881,25.74451 27.23234,33.38483 -19.64785,8.98098 -65.252907,2.25634 -54.0749,5.74738 5.10273,47.88403 49.63535,92.01118 58.21921,38.88456 -5.63644,-64.04414 42.32889,15.96834 44.13553,43.01388 36.22948,43.72396 -19.16333,75.97111 -38.48728,23.98362 -11.21836,-39.41082 -18.45846,-30.0324 -9.44604,5.15196 19.66709,24.42145 44.12783,117.61902 64.63275,53.89338 -22.60245,-41.4627 34.51047,-66.54454 39.86767,-16.77042 -8.03374,37.36161 11.1215,99.74011 46.23127,97.50578 10.76301,-14.62773 28.42196,55.14117 60.27581,49.67813 -4.24257,3.45763 11.74929,20.62835 8.93147,4.23709 z m 18.68501,-156.10165 c -24.27876,-12.41828 -36.89893,-70.39183 -3.36958,-26.59625 3.4517,5.14354 30.49751,41.81677 3.36958,26.59625 z m 42.21429,-25.21217 C 402.25397,437.47495 338.51158,363.86179 358.19574,335.4592 c 38.74588,31.89737 59.35009,84.98878 83.29924,117.43562 21.14876,-0.4128 6.66034,17.0515 0.41138,7.29525 z m -173.2334,-7.12791 C 202.65651,441.46508 236.53277,312.87124 182.9331,323.54427 c -0.83429,-67.24576 53.48694,29.6093 71.95868,45.71716 14.5826,10.18206 42.95598,95.36964 13.78118,83.80073 z m 32.90885,-50.59901 c -28.92012,-18.91769 -50.65501,-95.70895 -25.17835,-98.85392 20.1825,26.11191 82.8688,99.41771 33.39047,106.9645 l -8.21212,-8.11058 z m 175.61846,-53.20223 c -20.71017,-14.57319 -49.5389,-57.99076 -2.08294,-43.08896 -13.08162,12.91883 41.01458,60.59886 2.08294,43.08896 z m -70.0425,-23.15776 c -42.16305,-7.63244 -50.83085,-125.48722 -6.57231,-49.53844 18.31274,9.77115 56.96105,72.59571 6.57231,49.53844 z m 45.82119,280.79885 c 14.6761,-19.48917 59.80718,-36.69277 12.63129,-27.94233 -29.97552,-5.79451 -42.96704,-21.38662 -32.25956,18.49225 -1.16291,11.28169 11.02764,17.30499 19.62827,9.45008 z m -188.2342,-23.52927 c 1.2786,-31.87385 -76.50889,-53.57164 -26.17642,-15.30509 6.78061,2.68793 23.72191,38.60449 26.17642,15.30509 z M 546.1346,532.05885 c -32.31368,-37.12231 15.51797,-1.88898 17.30973,-29.192 -26.53822,-1.35266 -85.99357,-35.9788 -50.19346,8.92365 8.30189,0.50202 29.89279,26.81832 32.88373,20.26835 z M 658.5141,358.15927 c 11.10734,-34.01424 -80.07102,-40.39485 -20.04591,-16.38259 6.02933,8.3768 3.98065,28.59195 20.04591,16.38259 z M 620.52697,311.9728 c -39.39932,-31.33994 19.28207,-28.42849 20.66472,-25.65282 -16.4415,-15.29667 -28.52598,-24.96443 1.5775,-13.85729 -11.87692,-28.30416 93.59705,-18.69009 31.12419,-26.41894 -25.47227,10.76343 -103.9193,-16.13022 -81.5014,20.85627 1.29256,20.18752 -13.94564,27.11999 17.30878,46.18983 l 4.9096,0.99 5.91665,-2.10705 -4e-5,0 z m -6.99531,-80.78231 c 38.07429,8.67955 3.38414,-42.08408 -9.9762,-28.99251 0.38312,-27.47636 102.79575,-2.67985 41.60807,-22.12957 -33.1664,-8.98103 -72.32252,-28.3458 -54.48626,22.5329 -7.46297,19.75476 -1.67734,41.97169 22.85439,28.58918 z m -6.28943,-81.49034 c -27.42183,-21.28062 46.53094,10.4883 5.94934,-18.42626 -0.46412,-20.26277 8.00152,-14.29333 -17.26032,-24.39909 -24.98225,-23.412424 -8.6193,66.69347 11.31098,42.82535 z M 453.51404,138.13991 c 35.40529,-57.919469 -67.75349,2.74779 0,0 z m 50.67569,-3.20745 c 30.23116,-6.88591 36.46551,6.65612 12.20143,-15.84837 -13.31887,-28.951311 -28.26133,27.6039 -36.64559,-12.34071 -11.36979,14.5963 6.03226,46.50148 24.44416,28.18908 z m 186.85013,553.36525 c 23.05178,-27.56048 36.13459,-113.3039 54.90067,-112.2217 -15.44596,37.157 -17.21567,89.98939 -54.90067,112.2217 z M -10.686165,641.12847 c -38.082378,-14.88226 -12.149727,-41.90587 6.8766189,-45.72611 6.3693149,-45.28981 24.4604511,4.13783 2.1820411,16.68144 -1.5609963,35.41011 23.804809,29.86562 31.955543,7.97721 11.841248,17.25947 -29.2765057,46.4186 -41.014203,21.06746 z M 85.760499,587.38016 C 37.52921,612.89594 27.4375,499.97539 65.568422,555.49875 c 4.622981,6.73716 52.765008,38.46025 20.192077,31.88141 z M 750.74952,542.46311 c 18.46236,-87.88116 28.66041,-178.65736 14.37111,-267.76862 9.75244,-30.48561 20.89631,58.25261 16.4235,78.0503 -4.62914,60.42945 -3.88436,146.95146 -30.79461,189.71832 l 0,0 z M -170.7775,490.17835 c -15.04587,-33.46914 -0.49161,-40.06247 22.2543,-16.46519 40.34969,33.47038 -25.9015,-1.17629 -22.2543,16.46519 z M 763.48146,234.14865 C 748.93678,118.72189 705.19065,10.770976 662.31015,-96.381192 c -19.91067,-27.559638 -7.05238,-75.832908 9.89562,-22.073658 8.8127,19.687904 23.81901,66.763019 21.95561,59.739272 32.41532,97.56977 68.92797,195.785028 74.93098,299.400688 -4.53742,1.47321 -3.54441,-4.61832 -5.6109,-6.53646 z"
         id="path3004"
         inkscape:connector-curvature="0" />
      <path
         style="fill:#ea4d32"
         d="M 178.20403,919.55585 C 119.10108,914.54115 59.759256,911.23647 1.77051,897.36041 -92.719291,876.25992 -186.53986,841.14129 -266.74982,786.35325 c -17.41087,-55.69176 -69.49553,-91.10814 -109.02257,-130.8012 -19.40599,-4.03026 -50.13991,-33.52661 -63.00503,-69.2444 -19.20873,-26.60178 -29.63556,-95.57472 -56.33177,-38.91563 -15.33907,20.32367 -10.82154,-79.0121 0.0492,-102.70996 23.61326,-77.07515 65.66269,-146.90338 103.32584,-217.68192 15.21194,4.27471 33.29847,46.3182 59.78809,13.45368 53.2559,-10.13751 102.65216,-20.15243 156.17721,-27.47102 15.69626,-27.48474 79.952908,-16.99926 50.94123,4.1479 44.788144,-10.50779 -11.62387,51.30903 -22.03543,13.46753 22.4782,16.60556 -51.92974,28.94961 -3.23588,23.27519 9.87688,17.18905 17.32543,2.30903 40.91205,11.28474 -26.80073,45.84936 56.024945,26.24301 50.826619,70.57957 -26.811818,5.2129 3.361494,97.0189 -35.38588,64.88842 -28.460389,-31.095 30.217511,-74.91387 -19.344839,-69.98733 -6.92703,-33.47623 -32.34617,41.24833 -48.57312,-9.90485 -16.86638,-15.49236 -15.82381,-20.70455 -3.55961,-39.51586 -24.60974,-6.84954 -53.02615,31.42782 -48.5129,22.18425 -38.30944,-0.8829 49.37457,29.17025 1.36572,25.30059 -27.69031,5.44779 -30.36982,4.19322 -18.21625,-7.36156 -28.825,-1.39002 -20.31653,25.62935 -49.99368,12.46882 12.59611,29.54063 98.68855,39.61397 27.99234,36.15233 -5.63286,11.53002 9.3592,25.36698 -18.973,8.53554 -16.58035,-11.18144 -46.34088,-58.68275 -64.4243,-46.27879 7.92859,33.67779 13.71836,71.07668 31.68442,104.98696 26.02606,52.63243 57.47552,103.0574 97.65764,146.58122 49.51265,74.98005 121.017515,132.74142 195.162374,181.55732 43.327788,20.12595 85.520114,56.20615 135.830916,65.85605 56.45903,31.88556 124.0309,32.0965 186.83563,39.77038 56.79525,2.72943 100.88795,-22.54434 156.18827,-26.77973 35.72599,-29.00399 83.93677,-18.12783 116.21121,-45.54239 42.4554,-9.31799 82.89886,-92.34849 103.36813,-88.67967 -36.5144,60.84281 -96.1335,101.40677 -156.70155,135.27768 -57.0937,20.30125 -119.24582,37.09388 -178.32969,57.75855 -55.50318,15.47837 -116.51494,21.61075 -173.71757,16.55019 z M 691.03986,688.29771 c 23.1735,-29.33962 39.151,-119.42951 57.31176,-119.16953 -12.61941,34.46002 -28.89847,112.85827 -57.31176,119.16953 z m -389.35048,-6.04165 c -43.43676,-18.79983 34.43261,-78.00819 6.80444,-25.61001 -3.27022,8.72767 14.8571,35.80491 -6.80444,25.61001 z M 162.97309,625.35522 c -23.06594,-22.05767 -13.87854,-72.64022 22.45744,-38.53263 22.36468,-23.90514 13.45653,11.41818 -0.81707,25.96508 42.55946,35.59802 -62.47351,-45.11822 -16.75395,4.45928 3.5985,6.03231 9.32756,14.25717 -4.88642,8.10827 z m 446.82993,-13.85885 c -8.18789,-14.65233 -42.16204,-62.91033 -10.2727,-51.63974 -30.6564,-19.63808 20.9602,-37.20749 -0.96206,-65.06469 22.08079,22.47269 -0.94473,-35.00962 23.42594,-40.99834 -0.36692,-16.58972 -13.70818,-21.81517 -16.93037,-39.27801 50.32374,8.12437 0.28449,78.52724 59.52755,78.31147 12.086,31.71226 -22.68111,50.65874 -37.19241,49.38808 29.93976,9.98793 35.07336,1.27214 21.74185,35.71098 -8.93557,-22.74018 -9.04331,9.9643 -27.91834,-13.94531 -26.76367,3.02957 -21.58073,23.23993 0.39421,15.10344 2.56293,7.47988 3.51124,52.98736 -11.81367,32.41212 z m -340.9408,-3.90232 c 8.65339,-43.67473 -78.70652,-84.08425 -32.46344,-122.87649 27.70192,25.914 7.66928,74.86548 48.04585,101.83177 -0.76603,5.72327 -4.34813,43.44239 -15.58241,21.04472 z m -25.29259,-4.15223 c -27.19102,6.44584 4.72142,-31.54645 -24.90111,-18.25116 1.90401,-56.13234 53.40678,26.98742 24.90111,18.25116 z M 66.731738,577.69031 c -29.413157,-6.25595 -24.730449,-64.99371 4.330355,-11.25397 9.649218,5.33204 7.381705,20.88693 -4.330355,11.25397 z M 346.42387,560.31513 c -8.54016,-25.95064 -61.47205,-81.79812 -33.30882,-95.23611 6.36727,37.50111 44.56722,74.92442 53.9161,103.96507 -7.40356,0.73672 -19.27189,2.10813 -20.60728,-8.72896 z m 404.32565,-17.85202 c 15.87122,-83.48834 30.76995,-170.17925 14.3232,-255.07426 -1.26024,-79.72042 22.89876,38.88532 16.47141,65.35594 -2.87218,64.48418 -6.8986,130.25959 -26.33368,192.07682 l -2.38663,1.15093 -2.0743,-3.50943 0,0 z m -592.19265,-0.14616 c -23.22132,-26.3445 -12.1209,-73.46775 -42.94921,-58.32597 -47.184552,-11.9604 -29.869571,-134.70517 -12.45445,-116.24383 11.13645,23.4435 50.05445,87.99179 40.59502,82.75439 10.45292,-5.64094 45.57787,59.8589 10.60019,62.76534 0.18278,2.43062 14.19881,34.25424 4.20845,29.05007 z m -87.907785,-8.0972 C 38.169789,519.85495 24.742586,406.02541 68.380374,425.8665 c 15.49925,34.46734 -13.828525,75.57276 9.97657,112.83483 l -7.707859,-4.48158 0,0 z M 196.81956,475.24407 c -48.40805,-6.7044 -34.44109,-140.3215 1.47,-71.8739 16.16908,18.43471 20.38493,71.83408 -1.47,71.8739 z M 7.3055643,468.49291 C 4.3633644,445.20387 -34.266454,354.84121 7.6237632,370.80991 20.365364,407.26927 32.027904,440.86356 11.52376,472.22603 l -4.2181957,-3.73312 0,0 z M 416.46507,445.65728 c -34.0436,-23.97005 4.08731,-51.25416 6.11481,-11.85914 4.67286,12.75042 17.14725,28.19788 -6.11481,11.85914 l 0,0 z m -160.82968,-0.47424 c -35.909,-25.444 -44.69072,-94.9738 -38.33141,-122.35871 15.96976,37.91249 82.35313,86.66564 43.83352,125.09803 l -5.50211,-2.73932 0,0 z m 40.35713,-49.16519 c -13.30856,-19.95284 -40.7577,-73.2195 -21.23715,-86.19454 1.41138,30.71544 74.81987,66.29129 32.07224,77.49155 19.25171,27.21511 7.8269,31.51986 -10.83509,8.70299 z m 84.1472,-0.8651 c -32.61343,-17.38556 -40.45603,-89.99301 -0.79244,-36.62618 2.04454,16.14703 37.35701,64.77481 0.79244,36.62618 l 0,0 z m 25.3093,-71.40742 C 372.94528,312.66232 352.72029,212.152 392.97755,272.35021 c 5.13279,16.59622 72.9453,78.96247 12.47147,51.39512 z M 98.673698,238.7597 c -33.342937,13.70715 -6.839426,-56.04642 -45.357373,-36.97764 -1.489595,-23.95953 55.776955,-20.7537 8.652562,-27.36748 -53.4638214,14.76655 18.486005,-40.70159 25.826945,-11.99922 39.365348,29.59804 13.966078,-7.82682 -0.963092,-24.62785 31.93697,-3.95783 -22.920788,-47.038338 17.9764,-44.336776 7.06543,-3.508081 48.91003,-7.090004 43.11963,11.585676 -17.44718,-3.68567 -42.54972,28.55414 -10.01588,33.59246 -4.45415,23.2065 42.75507,6.06634 48.68482,34.29671 0.58331,-18.22712 7.36241,-40.53366 -0.74523,-54.60202 21.69549,-23.349889 -33.248,10.31471 -6.71625,20.74563 -61.41605,2.49757 -3.91888,-64.107633 32.05511,-29.40925 11.87359,-24.285787 76.79028,8.4124 13.01911,2.37552 -14.42488,13.9826 5.97976,17.77716 -17.29135,27.1672 -6.67581,28.73679 -1.32936,57.23673 -34.23664,74.54307 -18.50933,19.88947 -48.65398,26.25156 -74.008762,25.01397 z m 345.756712,-4.86597 c -21.57886,-21.61437 -34.7582,-82.33382 8.18981,-41.47855 15.82844,25.93011 69.89066,44.27523 13.59558,50.68995 -8.26927,1.27266 -16.55135,-3.01883 -21.78539,-9.2114 z m 319.05105,0.25495 C 752.02734,172.22665 742.27902,109.76172 718.48899,51.216313 698.6836,-10.496956 669.43076,-69.051291 650.87895,-130.83693 c 0.74943,-68.49214 54.65311,110.14388 40.15685,62.68745 33.17446,100.578433 72.03136,202.72731 78.05656,308.83459 l -2.76105,-0.33538 -2.84985,-6.20108 0,3e-5 z M 572.97871,194.20317 c -16.12859,-40.1847 5.48072,-81.22938 -27.72336,-112.350554 55.04662,-2.160712 31.54972,86.900484 34.94757,119.060574 l -3.17952,-1.50368 -4.04478,-5.20634 9e-5,0 z M -33.523403,179.60079 c -18.737857,-17.67792 19.501162,-5.32101 -6.228337,-30.39683 9.778557,9.25943 32.1195066,15.44902 44.2904,12.11282 -13.6084639,6.39589 -23.037203,38.56734 -38.062063,18.28401 z m 527.144593,-0.29107 c -43.30347,-0.95782 3.16882,-55.43623 -3.47667,-18.42623 44.71668,29.87888 -2.46396,-52.55924 49.01287,-19.97496 47.47197,14.15912 -56.47977,9.05619 -1.14621,30.24865 22.83263,16.44526 -38.98672,5.77022 -44.38999,8.15254 z m 24.7877,-56.21492 c -10.12129,-35.381571 64.47765,-9.36567 15.2537,3.47482 l -8.62289,-0.9227 -6.63081,-2.55212 z M 252.74945,77.724024 c -15.02872,-12.577988 -24.1207,-45.554548 4.5344,-33.982249 35.14789,19.379143 6.72584,28.461762 -4.5344,33.982249 z M 533.25531,61.591186 C 519.23183,33.432499 501.55672,74.041703 497.91966,32.735216 510.42677,7.6277731 508.71815,-7.2594176 534.40224,21.05459 c 29.35912,4.906175 37.40096,40.127906 67.0202,33.112116 -16.97213,11.037605 -47.85895,12.497788 -68.16713,7.42448 z M 478.77203,41.112341 c -14.50459,-19.616298 -49.71386,19.088074 -32.67995,-19.27125 24.97055,4.2034 50.16566,-14.9887792 44.45625,18.385771 2.00429,7.872739 -11.06644,7.688237 -11.7763,0.885479 z M 367.65362,24.898498 c -20.54616,-41.398922 36.77512,-38.842707 53.83197,-49.774256 -15.1058,23.4842889 -21.23495,32.4477578 -42.78593,27.1483311 -10.42343,0.4976758 -1.4888,39.4384799 -11.04604,22.6259249 z M 471.00728,4.8866211 c 18.14694,-32.2167451 -40.8404,-6.4349331 -11.60141,-39.3670441 4.2195,-25.109677 44.13408,-4.66817 61.08803,-23.348473 41.40193,7.369522 23.29055,21.775429 13.28337,34.976809 -8.84794,34.56333 -37.57099,-6.279006 -46.44953,16.0536628 C 504.28992,-9.3649924 477.1451,18.70054 471.00728,4.8866211 z"
         id="path3002"
         inkscape:connector-curvature="0" />
      <path
         style="fill:#77863c"
         d="M 178.20403,919.55585 C 119.10108,914.54115 59.759256,911.23647 1.77051,897.36041 -92.719291,876.25992 -186.53986,841.14129 -266.74982,786.35325 c -17.41087,-55.69176 -69.49553,-91.10814 -109.02257,-130.8012 -19.40599,-4.03026 -50.13991,-33.52661 -63.00503,-69.2444 -19.20873,-26.60178 -29.63556,-95.57472 -56.33177,-38.91563 -15.33907,20.32367 -10.82154,-79.0121 0.0492,-102.70996 25.34393,-75.19463 61.34813,-147.63396 104.12433,-214.24843 27.02617,24.26614 1.28737,61.77891 41.09483,76.12412 26.80695,31.46064 15.51385,71.56247 36.04221,106.03799 17.74664,47.12553 43.9961,90.64147 74.08324,131.19062 44.83428,54.19636 83.52155,115.6527 142.303141,156.79311 39.764193,41.48694 91.2074971,63.65848 136.594455,94.44431 48.389387,24.66223 97.650834,46.16627 150.187314,60.13508 51.48691,6.58177 103.92783,21.75887 155.61189,11.84033 54.47685,-7.35524 110.4039,-16.15799 161.43742,-40.88028 44.44236,-10.25935 87.47216,-22.40429 122.30191,-59.43767 17.44616,-13.15028 78.0399,-100.56397 46.505,-39.45639 -39.30553,58.25184 -102.00674,91.96766 -159.91953,127.64004 -83.03784,11.41721 -158.13959,59.60941 -243.42547,62.84779 -30.86716,1.61077 -63.06845,7.66323 -93.67675,1.84317 z M 691.03986,688.29771 c 23.1735,-29.33962 39.151,-119.42951 57.31176,-119.16953 -12.61941,34.46002 -28.89847,112.85827 -57.31176,119.16953 z m 59.70966,-145.8346 c 15.87122,-83.48834 30.76995,-170.17925 14.3232,-255.07426 -1.26024,-79.72042 22.89876,38.88532 16.47141,65.35594 -2.87218,64.48418 -6.8986,130.25959 -26.33368,192.07682 l -2.38663,1.15093 -2.0743,-3.50943 0,0 z M 109.72836,479.56712 c -31.276421,-4.28765 -22.838166,-96.70622 -4.36543,-41.40121 48.85417,-31.03043 34.21065,57.58033 4.36543,41.40121 z m 71.37257,-14.53279 c -40.62762,-27.58057 7.42096,-93.05584 22.31028,-34.6546 0.27237,9.34801 -5.75136,51.99801 -22.31028,34.6546 z m 60.49102,-33.36659 c -32.0798,-21.31585 -12.18619,-82.22088 18.17959,-41.0025 6.30669,11.29696 2.45855,72.99638 -18.17959,41.0025 z M 444.6442,234.02414 c -26.85437,-26.30498 -10.06274,-52.14159 14.43727,-16.51273 23.97434,15.53052 5.51321,38.84379 -14.43727,16.51273 z m 318.83726,0.12457 C 752.02734,172.22668 742.27902,109.76175 718.48899,51.216341 698.68361,-10.496942 669.43076,-69.051282 650.87895,-130.83693 c 0.74943,-68.49214 54.65311,110.14388 40.15685,62.68745 33.17446,100.578433 72.03136,202.72731 78.05656,308.83459 l -2.76105,-0.33538 -2.84985,-6.20108 0,6e-5 z"
         id="path3000"
         inkscape:connector-curvature="0" />
      <path
         style="fill:#4e5338"
         d="m 164.70958,905.94178 c -112.279107,-4.17574 -226.619306,-18.01435 -329.83734,-65.26837 -35.18517,-16.86338 -74.17742,-30.66094 -101.95668,-58.89798 8.34142,-21.03659 51.27219,-3.4305 44.30338,-35.56628 -2.64941,-36.34355 40.92366,-3.98646 8.63587,1.78164 -27.55855,7.19895 38.7533,62.22669 12.85174,17.35436 2.11122,-9.53433 23.01156,6.79624 9.7499,-14.54074 -2.0841,-17.6746 33.29299,7.64781 2.72312,-14.08945 -11.84336,-18.11525 -55.93915,-40.29753 -37.90715,-2.42596 -10.53945,41.08193 -26.30645,-48.4177 -34.47616,-4.20432 -7.21588,7.58716 33.73575,41.83628 0.97828,24.00749 -31.8601,-30.36517 -57.81225,-68.68638 -64.91999,-112.77259 0.66504,-37.95361 -31.65014,-68.9891 -29.3851,-103.78705 -11.18426,-29.5952 18.83142,29.61388 24.55655,38.29395 9.04654,22.76623 33.24649,58.25504 55.37903,74.77735 14.55353,6.921 30.05835,73.75534 28.4927,32.63577 -10.71751,-19.55067 -5.98798,-36.47938 12.6921,-14.05422 4.63335,19.13398 29.95075,26.78158 7.72665,2.85034 -28.29463,-27.24451 -23.01854,-63.75573 -28.60288,-94.39618 14.91524,-40.72787 50.23888,31.20954 67.54378,44.34213 48.78646,56.27698 105.440342,106.5025 167.474712,147.73699 36.87325,18.92355 72.065053,41.97127 111.704905,56.14942 93.140953,33.89085 192.516393,55.59943 291.990473,53.26943 13.77163,2.74412 78.96603,-25.25974 42.30621,-1.81783 -84.03256,28.57516 -174.15518,32.50881 -262.0241,28.6221 z M 107.72527,477.22972 c -19.555984,-3.90296 -27.057601,-70.83133 -9.02459,-53.68871 -1.487606,31.35374 43.37611,-8.30784 37.42828,28.11581 -2.27216,13.34596 -9.99443,43.07975 -28.40369,25.5729 z m 75.39214,-13.5409 c -29.19596,-16.96524 -11.96231,-86.37793 18.27447,-44.31905 3.40387,8.66684 0.91337,61.81767 -18.27447,44.31905 z m 61.19478,-30.99556 c -16.50452,-15.96449 -37.14488,-68.82801 5.99265,-53.08742 18.87191,2.49808 14.75582,84.62052 -5.99265,53.08742 z M -402.37939,279.72604 c -16.45962,-22.86795 21.40778,-53.11472 20.86672,-12.96959 -0.1486,7.64618 -16.24009,25.34159 -20.86672,12.96959 z M 442.218,230.03571 c -12.29464,-14.53801 -16.77795,-47.98055 6.80001,-20.59106 19.293,6.64266 34.07904,43.99424 2.39238,29.92072 l -4.84624,-3.98373 -4.34615,-5.34593 z"
         id="path2998"
         inkscape:connector-curvature="0" />
    </g>
  </g>
</svg>
